<?xml version="1.0" standalone="no"?><!DOCTYPE svg PUBLIC "-//W3C//DTD SVG 1.1//EN" "http://www.w3.org/Graphics/SVG/1.1/DTD/svg11.dtd"><svg t="1543826856703" class="icon" style="" viewBox="0 0 1024 1024" version="1.1" xmlns="http://www.w3.org/2000/svg" p-id="3348" xmlns:xlink="http://www.w3.org/1999/xlink" width="200" height="200"><defs><style type="text/css"></style></defs><path d="M512.0142 0C229.32823 0 0.163304 229.179127 0.163304 511.850897c0 73.216902 12.311686 142.84112 40.01653 205.791183 0.639015 1.221228-1.136026 2.442457-1.136026 3.635284l0 0.781018c14.20033 28.954473 28.40066 56.503113 56.80132 82.262512l0 151.304517 158.75969 0c30.374506 14.20033 62.737058 31.695137 96.661647 42.927598 50.567375 16.699588 104.585431 25.446991 160.719335 25.446991 212.138731 0 394.13016-129.223003 471.777565-313.074677 25.787799-61.189222 40.073331-128.470386 40.073331-199.003425C1023.836696 229.264329 794.67177 0 512.0142 0zM201.651787 684.796716l0-7.554576c0-89.447879 70.064428-164.894233 159.512307-168.146108-49.573352-4.3027-89.462079-46.335677-89.462079-96.988254 0-53.890253 43.112202-97.002455 97.016655-97.002455 12.9223 0 24.765376 3.237675 36.636852 7.540375-8.6196 17.239201-14.015726 36.636852-14.015726 57.113727 0 39.888727 18.318426 75.446354 47.429102 99.160905-15.094951 16.159976-37.716077 26.938026-61.430628 29.110677 14.001525 0 26.938026 2.13005 39.874527 6.46115-60.351403 34.478401-102.38438 98.08168-109.938955 170.290358L201.651787 684.782516zM726.566987 706.338617 316.986867 706.338617l0-5.381925c0-109.938955 86.224404-199.401035 194.004909-204.79716-60.351403-5.381925-108.85973-56.034502-108.85973-118.558556 0-65.761728 52.811027-118.572756 118.572756-118.572756 65.747528 0 118.572756 52.811027 118.572756 118.572756 0 62.509853-47.429102 113.17663-107.780505 118.558556 108.85973 5.396125 195.084134 94.858205 195.084134 204.79716L726.581187 706.338617zM826.807117 683.703291 735.172387 683.703291c-7.526175-73.287903-51.717602-137.956206-114.241655-172.463008 9.713026-2.15845 20.491076-4.3169 30.175701-4.3169-21.556101-2.14425-40.953752-10.778051-56.034502-23.700351 33.413377-23.714551 54.955277-62.509853 54.955277-105.622055 0-22.649526-5.381925-43.112202-15.094951-61.444828 7.540375-2.14425 16.174176-3.223475 24.793776-3.223475 53.904453 0 97.016655 43.112202 97.016655 96.988254 0 50.666778-38.795302 92.699755-88.397055 97.002455 88.397055 4.3169 159.512307 80.842479 159.512307 170.290358C827.872142 679.400591 827.872142 684.796716 826.807117 683.703291z" p-id="3349"></path></svg>