<?xml version="1.0" standalone="no"?><!DOCTYPE svg PUBLIC "-//W3C//DTD SVG 1.1//EN" "http://www.w3.org/Graphics/SVG/1.1/DTD/svg11.dtd"><svg t="1537346841303" class="icon" style="" viewBox="0 0 1024 1024" version="1.1" xmlns="http://www.w3.org/2000/svg" p-id="3623" xmlns:xlink="http://www.w3.org/1999/xlink" width="48" height="48"><defs><style type="text/css"></style></defs><path d="M506.759431 740.386517c10.035456-30.681648 36.881898-51.903121 71.718352-56.952809l88.529338-12.78402a97.158552 97.158552 0 0 1-10.418976-7.990013c-11.122097-9.588015-18.92035-19.815231-23.778277-30.234207s-7.734332-21.221473-8.245693-31.576529c-0.639201-10.674657 0-21.093633 1.981523-31.256929 1.342322-8.245693 3.643446-15.212984 6.26417-20.965793a47.556554 47.556554 0 0 1 10.227216-14.829463c4.218727-4.026966 8.884894-7.990012 14.509863-11.633458 5.688889-3.835206 11.377778-8.181773 17.578027-13.806742 5.433208-4.794007 10.291136-11.441698 14.893383-20.006991a326.63171 326.63171 0 0 0 11.697379-26.015481c3.451685-10.035456 6.64769-20.837953 9.268414-31.640449a50.049438 50.049438 0 0 0 19.623471-11.249938c5.433208-4.730087 10.291136-11.377778 14.957303-20.006991 4.154806-8.629213 7.606492-19.879151 9.588015-34.197253 1.342322-11.058177 1.278402-20.006991-0.38352-27.677404s-4.090886-13.614981-6.711611-18.408988a25.50412 25.50412 0 0 0-11.249937-12.4005 463.420724 463.420724 0 0 0-5.241449-81.817728 431.013233 431.013233 0 0 0-17.961548-74.083395 234.458926 234.458926 0 0 0-38.67166-72.037953 154.686642 154.686642 0 0 0-29.978527-28.188764 251.461673 251.461673 0 0 0-42.251186-24.992759 287.89613 287.89613 0 0 0-50.94432-18.472909 225.382272 225.382272 0 0 0-57.272409-7.222971c-15.916105 0-32.27965 1.598002-48.962797 4.154806a225.446192 225.446192 0 0 0-99.012234 42.698627 204.67216 204.67216 0 0 0-43.785269 45.638951c-13.678901 19.623471-24.161798 41.803745-31.384769 66.476904s-12.272659 47.812235-14.957303 69.672909a489.244444 489.244444 0 0 0-4.218727 77.790762c-5.688889 7.031211-9.907615 13.998502-12.528339 21.604993a89.74382 89.74382 0 0 0-5.624969 24.033958c-1.214482 9.268414 0 19.815231 3.451685 31.193009 3.579526 11.633458 7.670412 20.390512 12.46442 26.654681 4.857928 6.20025 9.268414 10.994257 13.487141 14.382023a42.826467 42.826467 0 0 0 14.573783 7.159051c3.451685 10.866417 6.839451 21.477154 10.291136 31.640449 3.451685 8.884894 7.031211 17.386267 11.249937 26.015481s8.884894 15.276904 14.509863 20.070912c11.953059 9.524095 22.180275 18.792509 31.448689 27.613483s14.573783 21.413233 15.980025 37.840699c0.511361 10.418976 0.958801 20.006991 0.958802 28.827965 0 9.012734-1.598002 17.386267-4.666168 25.63196a72.229713 72.229713 0 0 1-16.555306 24.609238 165.041698 165.041698 0 0 1-33.366292 25.56804c-17.769788 11.697378-38.54382 20.454432-62.322097 26.654682s-127.456679 41.611985-149.764794 49.218477a191.568539 191.568539 0 0 0-58.295131 30.617728c-16.363546 12.78402-26.590762 32.02397-30.809488 57.272409-6.839451 43.657428-8.309613 50.624719-4.602248 78.621723 3.579526 27.869164 9.268414 44.424469 16.938827 50.049438 6.26417 4.602247 23.970037 19.17603 53.628964 25.823721 29.658926 6.58377 215.858177 24.417478 432.227715 24.417478 28.188764 0 28.380524-0.575281 54.587765-1.853683a94.601748 94.601748 0 0 1 0.511361-28.764045l17.322347-92.044944-46.086392-70.823471c-25.4402-24.417478-34.516854-57.46417-24.417478-88.017977z m507.909114 37.776779c12.208739-11.697378 8.693134-23.075156-7.862173-25.4402l-99.907116-15.596504a64.878901 64.878901 0 0 1-43.593508-31.448689l-48.195755-97.094632c-3.643446-7.350811-8.629213-11.186017-13.487141-11.186018s-9.588015 3.835206-13.487141 11.186018l-48.195756 97.094632a65.518102 65.518102 0 0 1-43.593508 31.448689l-107.833208 15.596504c-16.555306 2.365044-20.390512 13.806742-8.309613 25.4402l77.982522 75.425718c11.953059 11.633458 19.43171 34.389014 16.555306 50.816479l-18.281149 90.702622c-1.981523 11.889139 2.620724 18.856429 10.866417 18.856429a23.011236 23.011236 0 0 0 10.866417-3.259925l96.455431-50.369038a59.062172 59.062172 0 0 1 26.718601-5.88065c9.715855 0 19.623471 1.981523 26.846442 5.88065l96.391511 50.369038a24.097878 24.097878 0 0 0 10.866417 3.259925c8.373533 0 12.97578-6.967291 10.866417-18.856429l-18.281149-90.702622a64.495381 64.495381 0 0 1 16.555306-50.816479l70.05643-75.425718z" p-id="3624"></path></svg>