<?xml version="1.0" standalone="no"?><!DOCTYPE svg PUBLIC "-//W3C//DTD SVG 1.1//EN" "http://www.w3.org/Graphics/SVG/1.1/DTD/svg11.dtd"><svg t="1537346184932" class="icon" style="" viewBox="0 0 1024 1024" version="1.1" xmlns="http://www.w3.org/2000/svg" p-id="1850" xmlns:xlink="http://www.w3.org/1999/xlink" width="48" height="48"><defs><style type="text/css"></style></defs><path d="M660.5 490.3h87.6l177.1-152.5c-7.6-18-16.3-35.6-26.1-52.5l-235 201.9-3.6 3.1zM533.7 64.1v71.8l72.1-62.3c-23.7-5-47.8-8.2-72.1-9.5m370.9 426.2l51.1-44c-3.2-21.3-7.9-42.2-14.3-62.8L817.3 490.3h87.3zM758.2 137.2L533.7 330.1v75.4l270.8-233.3c-14.6-12.7-30.1-24.3-46.3-35m-99.7-49.3L533.7 195.4v75.3l182.9-157.6c-18.7-9.8-38.1-18.2-58.1-25.2m215.3 159.3c-11.2-15.2-23.3-29.7-36.3-43.4L533.7 464.9v25.4h57.9l282.2-243.1zM491.3 64.1C244.4 75.2 53.3 284.5 64.5 531.4c4.2 93.1 37.4 182.5 94.9 255.8l332-285.4-0.1-437.7z m29 468.5L186.9 819.2c169.5 180 452.9 188.5 632.9 18.9 84.7-79.7 135-189.3 140.3-305.5H520.3z" p-id="1851"></path></svg>