<?xml version="1.0" standalone="no"?><!DOCTYPE svg PUBLIC "-//W3C//DTD SVG 1.1//EN" "http://www.w3.org/Graphics/SVG/1.1/DTD/svg11.dtd"><svg t="1541838288829" class="icon" style="" viewBox="0 0 1024 1024" version="1.1" xmlns="http://www.w3.org/2000/svg" p-id="2941" xmlns:xlink="http://www.w3.org/1999/xlink" width="200" height="200"><defs><style type="text/css"></style></defs><path d="M864.8 295.3L678.6 107.6c-7.4-6.9-17.2-10.7-27.3-10.7H186.1c-22.3 0-40.3 18.1-40.3 40.3v748.6c0 22.3 18.1 40.3 40.3 40.3h255V749.4H319.3c-11.9-11.9-11.9-31.2 0-43.2L491.7 517c11.9-11.9 31.2-11.9 43 0l172.6 189.2c11.9 11.9 11.9 31.2 0 43.2H585.5v176.7h252c22.3 0 40.3-18.1 40.3-40.3V325c0-11.3-4.7-22.1-13-29.7z m-54.6 62.9H629.7c-5 0-9-4-9-9V168.8c0-8 9.7-12.1 15.4-6.4l180.5 180.5c5.7 5.6 1.6 15.3-6.4 15.3z m0 0" fill="" p-id="2942"></path></svg>