<?xml version="1.0" standalone="no"?><!DOCTYPE svg PUBLIC "-//W3C//DTD SVG 1.1//EN" "http://www.w3.org/Graphics/SVG/1.1/DTD/svg11.dtd"><svg t="1538964988855" class="icon" style="" viewBox="0 0 1024 1024" version="1.1" xmlns="http://www.w3.org/2000/svg" p-id="6217" xmlns:xlink="http://www.w3.org/1999/xlink" width="200" height="200"><defs><style type="text/css"></style></defs><path d="M512 0C229.255529 0 0 229.225412 0 512 0 794.774588 229.255529 1024 512 1024 794.744471 1024 1024 794.774588 1024 512 1024 229.225412 794.744471 0 512 0L512 0ZM890.428235 251.151059C934.159059 315.602824 961.807059 400.624941 967.649882 482.906353L712.402824 483.538824C710.776471 424.056471 705.776941 357.074824 696.350118 301.598118 765.650824 291.779765 827.964235 271.932235 890.428235 251.151059L890.428235 251.151059ZM845.492706 200.192C792.214588 217.057882 741.345882 235.429647 683.821176 243.862588 670.388706 185.253647 645.812706 122.006588 624.037647 69.511529 710.204235 91.286588 786.582588 137.456941 845.492706 200.192L845.492706 200.192ZM368.609882 483.538824C370.296471 427.188706 375.416471 362.887529 385.084235 309.669647 421.074824 312.832 474.624 314.669176 512 314.669176 549.376 314.669176 601.148235 312.832 637.138824 309.669647 646.806588 362.887529 651.896471 427.188706 653.613176 483.538824L368.609882 483.538824 368.609882 483.538824ZM653.613176 540.431059C651.896471 596.781176 646.806588 661.112471 637.138824 714.330353 601.148235 711.168 549.376 709.330824 512 709.330824 474.624 709.330824 421.074824 711.168 385.084235 714.330353 375.416471 661.112471 370.296471 596.781176 368.609882 540.431059L653.613176 540.431059 653.613176 540.431059ZM463.420235 56.711529C473.961412 55.988706 501.308235 55.115294 512 55.115294 522.691765 55.115294 533.172706 55.988706 543.683765 56.711529 571.482353 114.537412 607.442824 185.404235 623.796706 252.355765 591.992471 255.126588 544.617412 256.783059 512 256.783059 479.382588 256.783059 430.230588 255.126588 398.426353 252.355765 414.780235 185.404235 435.651765 114.537412 463.420235 56.711529L463.420235 56.711529ZM390.174118 69.511529C368.429176 122.006588 353.611294 185.253647 340.178824 243.862588 282.654118 235.429647 231.785412 217.057882 178.507294 200.222118 237.417412 137.456941 304.007529 91.286588 390.174118 69.511529L390.174118 69.511529ZM133.571765 251.151059C196.065882 271.932235 258.349176 291.779765 327.649882 301.598118 318.223059 357.074824 313.223529 424.056471 311.597176 483.538824L56.350118 482.906353C62.192941 400.624941 89.840941 315.602824 133.571765 251.151059L133.571765 251.151059ZM133.571765 772.818824C89.840941 708.397176 62.192941 623.344941 56.350118 541.063529L311.597176 540.431059C313.223529 599.943529 318.223059 666.925176 327.649882 722.371765 258.349176 732.250353 196.065882 752.067765 133.571765 772.818824L133.571765 772.818824ZM178.507294 823.808C231.785412 806.942118 282.654118 788.600471 340.178824 780.137412 353.611294 838.746353 368.429176 901.993412 390.174118 954.488471 304.007529 932.713412 237.417412 886.543059 178.507294 823.808L178.507294 823.808ZM543.683765 967.288471C533.172706 968.041412 522.691765 968.884706 512 968.884706 501.308235 968.884706 473.961412 968.041412 463.420235 967.288471 435.651765 909.462588 414.780235 838.595765 398.426353 771.644235 430.230588 768.873412 479.382588 767.216941 512 767.216941 544.617412 767.216941 591.992471 768.873412 623.796706 771.644235 607.442824 838.595765 571.482353 909.462588 543.683765 967.288471L543.683765 967.288471ZM624.037647 954.488471C645.812706 901.993412 670.388706 838.746353 683.821176 780.137412 741.345882 788.600471 792.214588 806.942118 845.492706 823.808 786.582588 886.543059 710.204235 932.713412 624.037647 954.488471L624.037647 954.488471ZM890.428235 772.818824C827.964235 752.067765 765.650824 732.250353 696.350118 722.371765 705.776941 666.925176 710.776471 599.943529 712.402824 540.431059L967.649882 541.063529C961.807059 623.344941 934.159059 708.397176 890.428235 772.818824L890.428235 772.818824Z" p-id="6218"></path></svg>