<?xml version="1.0" standalone="no"?><!DOCTYPE svg PUBLIC "-//W3C//DTD SVG 1.1//EN" "http://www.w3.org/Graphics/SVG/1.1/DTD/svg11.dtd"><svg t="1540969927442" class="icon" style="" viewBox="0 0 1024 1024" version="1.1" xmlns="http://www.w3.org/2000/svg" p-id="5459" xmlns:xlink="http://www.w3.org/1999/xlink" width="200" height="200"><defs><style type="text/css"></style></defs><path d="M669.242254 392.255779c0-12.357446-10.029424-22.38687-22.38687-22.38687s-22.38687 10.029424-22.38687 22.38687c0 61.743226-50.191122 111.934349-111.934349 111.934349-61.743226 0-111.934349-50.191122-111.934349-111.934349 0-12.357446-10.029424-22.38687-22.38687-22.38687-12.357446 0-22.38687 10.029424-22.38687 22.38687 0 86.413092 70.294996 156.708088 156.708088 156.708088S669.242254 478.668871 669.242254 392.255779" p-id="5460"></path><path d="M862.502839 715.243961c58.876945-23.237237 99.486852-81.084737 99.486852-145.917324 0-71.637574-47.684022-132.082224-115.246791-150.528342 0.671289-8.820899 1.611707-17.551748 1.611707-26.550703 0-185.183629-150.663418-335.802022-335.802022-335.802022-185.183629 0-335.802022 150.618393-335.802022 335.802022 0 9.04398 1.477654 17.730826 2.193968 26.595728-67.428715 18.536168-115.02371 78.935794-115.02371 150.48434 0 64.832588 40.564881 122.680087 99.441826 145.917324l-72.443939 207.033263c-4.118807 11.686157 2.059915 24.446785 13.701047 28.520567 2.462075 0.850367 4.970198 1.25355 7.387247 1.25355 9.223059 0 17.909905-5.77554 21.13332-14.999622l80.413448-229.644237c0.403183-1.029446 0.671289-2.148943 0.940418-3.26844 2.462075-11.55108-4.432962-23.058159-15.84999-26.237571-2.77623-0.806365-5.596462-0.895393-8.193613-0.76134-47.729048-13.297864-81.757049-57.623395-81.757049-107.814518 0-49.206702 31.43085-91.248214 76.741825-106.068757 25.879414 117.306706 113.321952 215.047798 230.136447 250.374374l-72.174809 206.226898c-4.118807 11.686157 2.059915 24.446785 13.745049 28.520567 2.462075 0.895393 4.925173 1.25355 7.387247 1.25355 9.268084 0 17.86488-5.77554 21.13332-14.999622l80.189344-229.151004c2.103918-6.04467 1.566682-12.670577-1.611707-18.268062-3.089361-5.596462-8.462742-9.581216-14.730493-10.969842C317.384557 647.097908 221.524303 527.642259 221.524303 392.246569c0-160.468738 130.559545-291.028283 291.028283-291.028283s291.028283 130.559545 291.028283 291.028283c0 12.044314-0.76134 23.864524-2.148943 35.550681-14.32731 116.993574-97.15883 213.032908-211.108069 244.642836-5.954619 1.656733-10.969842 5.686513-13.880125 11.192923-2.821255 5.462408-3.313465 11.910261-1.25355 17.730826L656.813177 934.63467c3.26844 9.223059 11.865235 14.999622 21.13332 14.999622 2.462075 0 4.925173-0.358157 7.387247-1.25355 11.686157-4.074805 17.819854-16.83441 13.745049-28.520567l-74.010621-211.466226c110.053512-38.998199 190.55701-131.769093 214.957747-245.225097 45.535079 14.685467 77.190033 56.818053 77.190033 106.157785 0 50.773384-34.833343 95.502098-83.457784 108.307751-2.193968 0-4.52199 0.313132-6.760984 1.029446-11.462053 3.402493-18.043958 15.84999-15.178701 27.446096 0.403183 1.432629 0.895393 2.77623 1.477654 4.118807l79.428004 226.822982c3.223415 9.223059 11.82021 14.999622 21.088294 14.999622 2.462075 0 4.970198-0.403183 7.432273-1.25355 11.641131-4.074805 17.819854-16.83441 13.701047-28.520567L862.502839 715.243961z" p-id="5461"></path></svg>