<?xml version="1.0" standalone="no"?><!DOCTYPE svg PUBLIC "-//W3C//DTD SVG 1.1//EN" "http://www.w3.org/Graphics/SVG/1.1/DTD/svg11.dtd"><svg t="1540970009119" class="icon" style="" viewBox="0 0 1024 1024" version="1.1" xmlns="http://www.w3.org/2000/svg" p-id="6755" xmlns:xlink="http://www.w3.org/1999/xlink" width="200" height="200"><defs><style type="text/css"></style></defs><path d="M512.002 941.115c-247.435 0-447.957-200.576-447.957-447.954 0-247.435 200.523-447.957 447.957-447.957 247.379 0 447.953 200.523 447.953 447.957 0.001 247.378-200.575 447.954-447.953 447.954zM849.5 356.18c-16.409-1.63-40.955-19.212-61.914-46.241-24.837-32.136-35.737-65.622-26.466-79.163-65.342-60.176-152.759-97.253-249.175-97.253-95.232 0-181.531 36.183-246.593 94.836 12.363 11.688 1.74 47.477-24.665 81.581-22.87 29.612-50.174 47.985-66.296 46.294-17.645 42.196-27.533 88.378-27.533 136.869 0 198.609 163.44 359.461 365.141 359.461 201.587 0 365.136-160.851 365.136-359.461-0.051-48.488-9.882-94.671-27.635-136.923zM737.918 568.782c-108.491 0-150.461 111.582-150.461 111.582l0.896 140.35-73.487 1.399v0.229l-7.361-0.113-7.247 0.113v-0.229l-75.005-1.399 0.734-140.349S391.6 568.783 283.164 568.783c-67.812 0-94.729-0.563-94.729-0.563s-19.328-31.461-16.348-102.2c156.586-6.632 123.774-108.325 328.115-113.154v-0.449c2.53 0 4.719 0.227 7.303 0.227 2.533 0 4.667-0.227 7.308-0.227v0.449c204.619 4.774 177.483 106.522 334.128 113.154 3.032 70.736-16.408 102.2-16.408 102.2s-26.802 0.562-94.615 0.562zM507.801 384.217c-62.98 0-113.976 51.038-113.976 114.001 0 62.911 51.044 113.999 113.976 113.999 62.928 0 114.024-51.087 114.024-113.999-0.002-62.963-51.048-114.001-114.024-114.001z" fill="" p-id="6756"></path></svg>