<?xml version="1.0" standalone="no"?><!DOCTYPE svg PUBLIC "-//W3C//DTD SVG 1.1//EN" "http://www.w3.org/Graphics/SVG/1.1/DTD/svg11.dtd"><svg t="1540969637532" class="icon" style="" viewBox="0 0 1024 1024" version="1.1" xmlns="http://www.w3.org/2000/svg" p-id="4749" xmlns:xlink="http://www.w3.org/1999/xlink" width="200" height="200"><defs><style type="text/css"></style></defs><path d="M974.7744 844.0544c-10.10666667 3.27893333-21.02933333-1.98293333-24.45013333-11.75786667-97.21493333-280.0064-284.35413333-278.768-292.5632-278.89386666-152.8832-13.29173333-213.06666667 110.33813333-215.57973334 115.57973333-3.00266667 6.3712-9.4304 10.61226667-16.63786666 10.90453333-159.63733333 7.1712-181.22453333 167.31626667-182.06186667 174.14186667-1.16693333 9.488-9.48373333 16.47466667-19.13386667 16.47466667a16.608 16.608 0 0 1-2.31253333-0.16213334c-10.57493333-1.2-18.112-10.50453333-16.83733333-20.7712 0.25493333-1.94986667 25.6128-190.83733333 207.49226666-206.3456 20.11626667-34.00853333 95.51893333-140.3424 246.25493334-127.1424 6.73386667-0.3296 221.05173333-3.47413333 327.9168 304.28906667a18.53546667 18.53546667 0 0 1-1.03146667 14.4 18.53653333 18.53653333 0 0 1-11.056 9.2832zM387.07733333 260.1664h345.8848c10.05226667 0 18.2016 8.1504 18.2016 18.20373333 0 10.0544-8.1504 18.2048-18.2016 18.2048H387.07733333c-10.0544 0-18.20373333-8.1504-18.20373333-18.2048 0-10.05333333 8.14933333-18.20373333 18.20373333-18.20373333z m0 254.86293333h36.40853334c10.05546667 0 18.20373333 8.14933333 18.20373333 18.20266667 0 10.05546667-8.14933333 18.20373333-18.20373333 18.20373333h-36.40853334c-10.0544 0-18.20373333-8.14933333-18.20373333-18.20373333 0-10.0544 8.14933333-18.20266667 18.20373333-18.20266667z m0-127.4336h345.8848c10.05226667 0 18.2016 8.14933333 18.2016 18.20373334 0 10.0544-8.1504 18.2048-18.2016 18.2048H387.07733333c-10.0544 0-18.20373333-8.1504-18.20373333-18.2048s8.14933333-18.20373333 18.20373333-18.20373334zM277.8528 241.96266667a36.4192 36.4192 0 0 1 31.52426667 54.63253333 36.41386667 36.41386667 0 0 1-31.5456 18.20053333c-20.112-0.00426667-36.4128-16.31253333-36.40853334-36.4256 0.00426667-20.112 16.31253333-36.416 36.42986667-36.40746666z m0 254.86186666a36.41173333 36.41173333 0 0 1 31.5328 18.21653334 36.41813333 36.41813333 0 0 1-31.55413333 54.6176c-20.112-0.00426667-36.4128-16.31253333-36.40853334-36.42453334 0.00426667-20.11413333 16.31253333-36.41813333 36.42986667-36.4096z m0-127.4336c20.112 0.00426667 36.41173333 16.31253333 36.40746667 36.42986667-0.00426667 20.112-16.31573333 36.41173333-36.4288 36.40853333-20.112-0.00853333-36.4128-16.3168-36.40853334-36.42986666 0.00426667-20.112 16.31253333-36.4128 36.42986667-36.40853334zM816.736 174.28586667c0-20.1088-16.30613333-36.40853333-36.4128-36.40853334H212.59626667a36.4 36.4 0 0 0-25.74186667 10.66666667 36.4 36.4 0 0 0-10.66666667 25.74186667v586.5024c0 15.07946667-18.5792 27.3088-33.6576 27.3088-15.08373333 0-34.57173333-12.22933333-34.57173333-27.3088V169.14133333c0-50.27093333 46.80213333-97.07306667 97.07306667-97.07306666h588.58453333c50.27093333 0 91.02506667 46.80213333 91.02506667 97.07306666V562.66666667c-17.34826667-13.7632-48.87893333-26.35413333-67.904-37.6832V174.28586667z m-447.8624 595.60533333c50.2784 0 91.02186667 40.74133333 91.02186667 91.0208s-40.74346667 91.0208-91.02186667 91.0208c-50.27946667 0-91.0208-40.74133333-91.0208-91.0208s40.74133333-91.0208 91.0208-91.0208z m0 145.63413333c29.61173333-0.76266667 53.22026667-24.992 53.22026667-54.61226666 0-29.62453333-23.60853333-53.8496-53.22026667-54.61226667-29.6128 0.76266667-53.22133333 24.98773333-53.22133333 54.61226667 0 29.62026667 23.60853333 53.8496 53.22133333 54.61226666z m96.69973333-210.98773333c13.7472-25.76213333 55.01653333-90.496 137.7536-111.08373333a198.8288 198.8288 0 0 1 48.53333334-5.82933334c7.24586667 0 14.51093333 0.36693333 21.7184 1.09546667 0.144 0 52.37333333 9.1168 93.13493333 38.4288 54.79146667 39.392 88.85653333 80.7712 88.85653333 80.7712 18.58773333 25.70453333-18.0064 22.37546667-42.08746666 24.0128-13.50826667 0.92906667-101.45386667 1.69173333-195.26506667 1.69173333-73.09013333 0-138.64426667-0.4544-146.928-1.69173333-18.8576-2.78293333-10.61226667-19.0784-5.71626667-27.3952z m152.62933334-9.63306667c78.65813333 0 134.9664-0.49173333 171.11893333-1.07093333a495.26826667 495.26826667 0 0 0-42.65386667-34.51626667c-27.3024-19.62453333-59.23733333-29.80053333-76.8416-32.13333333-6.0768-0.54613333-12.1184-0.8544-17.96693333-0.8544-13.96053333 0-27.5776 1.62133333-40.46506667 4.8416-45.78986667 11.3792-76.57066667 39.4496-95.41226666 63.33333333 22.92053333 0.2208 56.30826667 0.4 102.2208 0.4zM514.50666667 842.70826667h182.04693333c10.0544 0 18.2016 8.1504 18.2016 18.20373333s-8.14826667 18.20373333-18.2016 18.20373333H514.50666667c-10.0544 0-18.2048-8.1504-18.2048-18.20373333s8.1504-18.20373333 18.2048-18.20373333z m327.68426666-72.81706667c50.27946667 0 91.0208 40.74133333 91.0208 91.0208s-40.74133333 91.0208-91.0208 91.0208c-50.28586667 0-91.0272-40.74133333-91.0272-91.0208s40.74133333-91.0208 91.0272-91.0208z m0 145.63413333c29.6128-0.76266667 53.2192-24.992 53.2192-54.61226666 0-29.62453333-23.6064-53.8496-53.2192-54.61226667-29.61493333 0.76266667-53.2224 24.98773333-53.2224 54.61226667-0.00106667 29.62026667 23.60746667 53.8496 53.2224 54.61226666z m0 0" p-id="4750"></path></svg>