<?xml version="1.0" standalone="no"?><!DOCTYPE svg PUBLIC "-//W3C//DTD SVG 1.1//EN" "http://www.w3.org/Graphics/SVG/1.1/DTD/svg11.dtd"><svg t="1540970215562" class="icon" style="" viewBox="0 0 1024 1024" version="1.1" xmlns="http://www.w3.org/2000/svg" p-id="8294" xmlns:xlink="http://www.w3.org/1999/xlink" width="200" height="200"><defs><style type="text/css"></style></defs><path d="M490.3 241.7c-1.3-12-11.5-21.4-23.4-21.4h-245c-11.4 0-21.4 8.4-23.4 19.6L98.1 817.3c-0.9 6.3 0.7 12.9 4.5 18 3.7 5 9.1 8.2 15.9 9.2l402.5 0.4c13.2 0 23.9-10.7 23.9-23.9 0-3-0.5-5.5-1.7-8.3l-52.9-571z m4 555.9H149.8L242 267.3h203l49.3 530.3z m364-284.5c12.9 0 23.4-10.5 23.4-23.4 0-1.6 0-3.7-0.8-5.7l-53.5-245c-2.6-11-12.2-18.8-23.2-18.8h-241c-6 0-11.7 2.3-16.9 6.9-4.5 4.6-6.9 10.4-6.9 16.9 0 1.1 0 3 0.7 4.8l35.1 243.8 0.2 1.9c2.5 10.8 12.1 18.3 23.3 18.3h259.6v0.3z m-239.4-47.2l-27.1-198.2h193.8l43.1 198.2H618.9z m328.7 351.7c-0.2-0.7-0.3-1.3-0.4-1.9l-53.6-245.2c-2.6-11.1-12.2-18.8-23.3-18.8H610.5c-12.7 0-23.2 10.1-23.9 23.4 0 1.6 0 3.4 0.6 4.6l35.2 244.5 0.2 1.9c2.6 10.9 12.3 18.8 23.3 18.8h277.6c12.4 0 22.7-9.6 23.8-22.2l1.3-0.3-1-4.8z m-52.7-20H666.2L639 599.4h212.3l43.6 198.2z" p-id="8295"></path></svg>