<?xml version="1.0" standalone="no"?><!DOCTYPE svg PUBLIC "-//W3C//DTD SVG 1.1//EN" "http://www.w3.org/Graphics/SVG/1.1/DTD/svg11.dtd"><svg t="1544759745160" class="icon" style="" viewBox="0 0 1108 1024" version="1.1" xmlns="http://www.w3.org/2000/svg" p-id="643" xmlns:xlink="http://www.w3.org/1999/xlink" width="216.40625" height="200"><defs><style type="text/css"></style></defs><path d="M626.952418 876.127367h-279.708637a39.958377 39.958377 0 1 1 0-79.916753h279.708637a39.958377 39.958377 0 0 1 0 79.916753zM40.017142 876.154006A39.958377 39.958377 0 0 1 0.378432 831.134235L75.26043 230.053694a125.202914 125.202914 0 0 1 123.950885-109.485952h57.007284a125.682414 125.682414 0 0 1 125.202914 116.998127c3.915921 59.271592 15.983351 144.382934 51.626222 213.351092 38.999376 75.547971 95.900104 112.602706 173.659105 113.24204h103.731946a39.958377 39.958377 0 0 1 0 79.916753h-104.131529c-107.3282-0.852445-191.800208-54.956087-244.225599-156.503642-41.929657-81.195421-55.941727-177.921332-60.363787-244.758376a45.579188 45.579188 0 0 0-45.499272-42.329241h-57.007284A45.073049 45.073049 0 0 0 154.564489 239.936733L79.655852 841.123829A39.958377 39.958377 0 0 1 40.017142 876.154006z" fill="" p-id="644"></path><path d="M1068.279369 876.127367a39.958377 39.958377 0 0 1-39.958377-39.958376V512.159834h-37.294485a324.488658 324.488658 0 0 0-321.664932 284.05078H772.587381a39.958377 39.958377 0 1 1 0 79.916753h-145.634963a39.958377 39.958377 0 0 1-39.958377-39.958376c0-222.727992 181.144641-403.952549 403.95255-403.95255h77.252861a39.958377 39.958377 0 0 1 39.958377 39.958377v363.994173a39.958377 39.958377 0 0 1-39.87846 39.958376zM187.889775 1024A187.831009 187.831009 0 1 1 375.667506 836.168991a188.044121 188.044121 0 0 1-187.777731 187.831009z m0-295.691988A107.914256 107.914256 0 1 0 295.750753 836.168991a108.020812 108.020812 0 0 0-107.860978-107.914256z" fill="" p-id="645"></path><path d="M920.406736 1024A187.831009 187.831009 0 1 1 1108.237746 836.168991a188.044121 188.044121 0 0 1-187.83101 187.831009z m0-295.691988A107.914256 107.914256 0 1 0 1028.320992 836.168991a108.020812 108.020812 0 0 0-107.914256-107.914256zM187.889775 869.973777A36.069095 36.069095 0 1 1 223.825675 833.798127a36.122373 36.122373 0 0 1-35.9359 36.17565z m0-45.499271A9.430177 9.430177 0 1 0 197.186757 833.798127a9.430177 9.430177 0 0 0-9.296982-9.323621z" fill="" p-id="646"></path><path d="M918.142428 872.238085a36.069095 36.069095 0 1 1 36.069095-36.069094 36.095734 36.095734 0 0 1-36.069095 36.069094z m0-45.499271a9.430177 9.430177 0 1 0 9.430177 9.430177 9.430177 9.430177 0 0 0-9.430177-9.430177zM374.442116 79.916753H87.780722a39.958377 39.958377 0 0 1 0-79.916753h286.634755a39.958377 39.958377 0 0 1 0 79.916753zM959.059806 280.427888h-138.735484a26.638918 26.638918 0 0 1 0-53.277836H959.059806a26.638918 26.638918 0 0 1 0 53.277836z" fill="" p-id="647"></path><path d="M1029.493105 384.452862H743.071461a71.925078 71.925078 0 0 1-71.925078-71.925078V192.49282a71.925078 71.925078 0 0 1 71.925078-71.925078h286.421644a71.925078 71.925078 0 0 1 71.925078 71.925078v120.034964a71.925078 71.925078 0 0 1-71.925078 71.925078z m-278.40333-79.916754h270.411654V200.484495H751.063136z" fill="" p-id="648"></path></svg>