<?xml version="1.0" standalone="no"?><!DOCTYPE svg PUBLIC "-//W3C//DTD SVG 1.1//EN" "http://www.w3.org/Graphics/SVG/1.1/DTD/svg11.dtd"><svg t="1538964929563" class="icon" style="" viewBox="0 0 1024 1024" version="1.1" xmlns="http://www.w3.org/2000/svg" p-id="5934" xmlns:xlink="http://www.w3.org/1999/xlink" width="200" height="200"><defs><style type="text/css"></style></defs><path d="M941.1 744.9V63.2h-861v681.7h395.4v90.6h-54.4v51.9H158.6v69.9h700.1v-69.9H600.2v-52h-54.7V745h395.6z m-69.9-611.8V675H150V133.1h721.2z" p-id="5935"></path><path d="M304.1 204.7h68.7v378.9h-68.7zM533.4 438.2h81.1c54.2 0 91.1-11.4 112.8-35 21.1-23 31.9-51.4 31.9-84.4 0-19.3-4-37.3-12-53.4-8-16.5-18.9-29.5-32.2-38.7-13.2-9.1-29.6-15.3-48.3-18.4-13.3-2.4-32.2-3.6-56.3-3.6H464.8v378.9h68.7V438.2z m139.9-77.9c-10.8 9.6-30.3 14.4-58 14.4h-81.7V268.2h80.8c25.4 0 36.6 1.5 41.3 2.8 10.1 2.8 17.9 8.3 24 17 6.3 8.7 9.3 19.3 9.3 32.1-0.1 17.7-5.2 30.9-15.7 40.2z" p-id="5936"></path></svg>