<?xml version="1.0" standalone="no"?><!DOCTYPE svg PUBLIC "-//W3C//DTD SVG 1.1//EN" "http://www.w3.org/Graphics/SVG/1.1/DTD/svg11.dtd"><svg t="1537347655773" class="icon" style="" viewBox="0 0 1024 1024" version="1.1" xmlns="http://www.w3.org/2000/svg" p-id="12465" xmlns:xlink="http://www.w3.org/1999/xlink" width="48" height="48"><defs><style type="text/css"></style></defs><path d="M192 832h-64c-35.346 0-64-28.654-64-64 0-35.346 28.654-64 64-64h64V576h-64c-35.346 0-64-28.654-64-64 0-35.346 28.654-64 64-64h64V320h-64c-35.346 0-64-28.654-64-64 0-35.346 28.654-64 64-64h64v-64c0-35.346 28.654-64 64-64h640c35.346 0 64 28.654 64 64v768c0 35.346-28.654 64-64 64H256c-35.346 0-64-28.654-64-64v-64z m64 0c0 35.346 28.654 64 64 64h128V128H320c-35.346 0-64 28.654-64 64v640z m0-640h128v128H256V192z m0 256h128v128H256V448z m0 256h128v128H256V704z" p-id="12466"></path></svg>