<?xml version="1.0" standalone="no"?><!DOCTYPE svg PUBLIC "-//W3C//DTD SVG 1.1//EN" "http://www.w3.org/Graphics/SVG/1.1/DTD/svg11.dtd"><svg t="1538042278636" class="icon" style="" viewBox="0 0 1024 1024" version="1.1" xmlns="http://www.w3.org/2000/svg" p-id="2443" xmlns:xlink="http://www.w3.org/1999/xlink" width="200" height="200"><defs><style type="text/css"></style></defs><path d="M968.499 676.076l-28.112 0c0.113-1.197 0.339-2.303 0.339-3.522l0-60.605c0-77.404-62.93-140.357-140.334-140.357-77.359 0-140.312 62.953-140.312 140.357l0 60.605c0 1.242 0.248 2.348 0.361 3.522l-16.574 0c-25.809 0-46.786 20.999-46.786 46.786l0 223.157c0 25.854 20.999 46.831 46.786 46.831l324.654 0c25.786 0 46.786-20.999 46.786-46.831l0-223.157c-0.023-25.786-21.044-46.786-46.808-46.786l0 0zM731.703 672.553l0-60.605c0-37.934 30.799-68.756 68.666-68.756 37.889 0 68.711 30.822 68.711 68.756l0 60.605c0 1.242 0.271 2.348 0.384 3.522l-138.099 0c0.09-1.197 0.339-2.281 0.339-3.522l0 0zM979.45 946.019c0 6.097-4.922 10.974-10.951 10.974l-324.654 0c-6.051 0-10.974-4.9-10.974-10.974l0-223.157c0-6.051 4.945-10.974 10.974-10.974l324.654 0c6.051 0 10.951 4.945 10.951 10.974l0 223.157zM806.149 822.574c-14.79 0-26.825 11.99-26.825 26.825l0 51.64 53.627 0 0-51.64c0.023-14.812-11.99-26.825-26.802-26.825l0 0zM655.902 617.3c-17.025-6.006-34.299-11.2-51.821-15.558-2.552-1.332-5.442-2.123-8.377-2.123l-9.19 0c-2.868 0-5.735 0.7-8.309 2.077-6.187 3.342-13.187 6.164-20.232 8.919-5.442 2.168-11.2 3.884-17.003 5.645-2.642 0.7-5.306 1.535-7.993 2.303-5.035 1.377-10.251 2.461-15.467 3.477-4.606 0.926-9.303 1.671-14.022 2.348-4.042 0.564-8.016 1.197-12.125 1.581-9.28 0.971-18.741 1.581-28.225 1.581-3.545 0-7.045-0.452-10.567-0.61-38.837-1.377-76.523-10.138-104.59-25.222-2.506-1.377-5.419-2.077-8.309-2.077l-6.684 0c-1.355 0-2.732 0.135-4.087 0.452-103.958 24.612-200.578 78.194-279.54 154.763-3.364 3.297-5.284 7.948-5.284 12.667l0 62.93c0 9.755 7.858 161.356 17.612 161.356l522.613 0c-20.525-42.112-32.064-89.394-32.064-139.409 0-93.097 39.966-176.891 103.664-235.102l0 0zM265.111 320.758c0 18.945 14.519 34.299 32.38 34.299l0.587 0c6.706 90.5 77.969 181.023 165.059 181.023 4.968 0 9.845-0.361 14.722-0.971 1.716-0.181 3.455-0.519 5.216-0.79 3.003-0.474 5.984-1.061 8.942-1.716 2.168-0.519 4.245-1.152 6.435-1.716 2.326-0.655 4.629-1.445 6.932-2.213 2.484-0.881 4.968-1.716 7.384-2.777 1.423-0.519 2.822-1.242 4.2-1.852 61.011-27.457 105.968-98.11 111.251-168.966l0.474 0c17.928 0 32.425-15.354 32.425-34.299 0-13.977-7.903-26.035-19.125-31.386 6.458-20.322 10.071-42.021 10.071-64.759 0-91.742-58.211-168.966-137.625-192.72-1.31-0.361-2.552-0.723-3.839-1.084-6.074-1.626-12.238-2.913-18.47-4.019-1.919-0.316-3.771-0.655-5.713-0.903-7.655-0.971-15.4-1.671-23.28-1.671-104.387 0-188.994 89.755-188.994 200.397 0 22.738 3.59 44.437 10.161 64.759-11.29 5.329-19.193 17.364-19.193 31.364l0 0zM265.111 320.758z" p-id="2444"></path></svg>