<?xml version="1.0" standalone="no"?><!DOCTYPE svg PUBLIC "-//W3C//DTD SVG 1.1//EN" "http://www.w3.org/Graphics/SVG/1.1/DTD/svg11.dtd"><svg t="1539054917533" class="icon" style="" viewBox="0 0 1024 1024" version="1.1" xmlns="http://www.w3.org/2000/svg" p-id="2620" xmlns:xlink="http://www.w3.org/1999/xlink" width="200" height="200"><defs><style type="text/css"></style></defs><path d="M315.070622-0.006302h-157.538462c-86.646154 0-157.538462 70.892308-157.538461 157.538462v157.538462c0 86.646154 70.892308 157.538462 157.538461 157.538461h157.538462c86.646154 0 157.538462-70.892308 157.538461-157.538461v-157.538462c0-86.646154-70.892308-157.538462-157.538461-157.538462z m551.384615 0h-157.538462c-86.646154 0-157.538462 70.892308-157.538461 157.538462v157.538462c0 86.646154 70.892308 157.538462 157.538461 157.538461h157.538462c86.646154 0 157.538462-70.892308 157.538462-157.538461v-157.538462c0-86.646154-70.892308-157.538462-157.538462-157.538462z m-551.384615 551.384616h-157.538462c-86.646154 0-157.538462 70.892308-157.538461 157.538461v157.538462c0 86.646154 70.892308 157.538462 157.538461 157.538461h157.538462c86.646154 0 157.538462-70.892308 157.538461-157.538461v-157.538462c0-86.646154-70.892308-157.538462-157.538461-157.538461z m551.384615 0h-157.538462c-86.646154 0-157.538462 70.892308-157.538461 157.538461v157.538462c0 86.646154 70.892308 157.538462 157.538461 157.538461h157.538462c86.646154 0 157.538462-70.892308 157.538462-157.538461v-157.538462c0-86.646154-70.892308-157.538462-157.538462-157.538461z" fill="" p-id="2621"></path></svg>