<?xml version="1.0" standalone="no"?><!DOCTYPE svg PUBLIC "-//W3C//DTD SVG 1.1//EN" "http://www.w3.org/Graphics/SVG/1.1/DTD/svg11.dtd"><svg class="icon" width="128px" height="128.00px" viewBox="0 0 1024 1024" version="1.1" xmlns="http://www.w3.org/2000/svg"><path fill="#dbdbdb" d="M978.53476409 438.65793422c-1.80588089 14.55190471-3.37874489 29.12711111-5.46424604 43.64406329-12.12852907 84.43366969-46.07908978 159.20878933-101.68857032 223.64960996-72.85273031 84.44532053-164.78954382 136.60615111-275.41431182 150.85513386-151.29786595 19.49186275-281.27468658-26.58722702-386.79638471-137.2585984-66.52632178-69.76525653-103.94883413-153.97756018-116.01910898-249.43292871-1.92238933-15.22765369-1.86413511-30.69997511-2.65639253-46.06743893-0.09320675-1.85248427 0.2097152-3.72827022 0.38447786-6.31475769 3.43699911-0.17476267 6.54777458-0.47768462 9.65855005-0.47768462 290.09437582-0.02330169 580.20040249-0.02330169 870.29477831-0.01165085 2.56318578 0 5.12637155 0.15146098 7.68955734 0.23301689C978.53476409 424.53711075 978.53476409 431.59752249 978.53476409 438.65793422zM531.82973725 36.23776711c1.73597582 1.80588089 3.16902969 4.194304 5.27783253 5.31278507 15.14609778 8.02743182 18.99087645 22.31136711 20.87831324 37.5390208 0.37282702 2.92436195-0.89711502 6.0817408-1.572864 9.11096035-0.19806435 0.88546418-0.8388608 1.73597582-1.45635555 2.45832818-24.38521742 28.90574507-17.90734791 56.79786667 1.21168782 85.59875414 14.97133511 22.56768569 30.8281344 44.94895787 36.21082453 72.61971342 6.78079147 34.89427911-1.21168782 65.89717618-25.44544427 91.4358272-6.93225245 7.30507947-18.85106631 12.50135609-28.92904675 13.34021688-8.06238435 0.67574898-17.49956835-5.69726293-25.04931555-10.82363448-8.55171982-5.80212053-12.74602382-27.39113529-9.71680427-37.48076658 3.94963627-13.15380338 7.53809635-26.43576605 10.53236337-39.83423716 0.81555911-3.65836515-0.1048576-8.44686222-1.8874368-11.8489088-13.65478969-26.06293902-27.93872498-51.7996544-41.61681635-77.86259342-20.94821831-39.90414222-17.45296498-83.82782578 16.31118222-117.91819662 12.74602382-12.86253227 27.84551822-16.57915165 43.31783965-21.64726898C530.54814435 36.23776711 531.1889408 36.23776711 531.82973725 36.23776711zM345.05504995 36.23776711c1.72432498 1.81753173 3.13407715 4.22925653 5.21957832 5.3477376 15.13444693 8.06238435 19.14233742 22.28806542 20.75015395 37.60892587 0.36117618 3.44864995-0.53593885 8.03908267-2.66804337 10.61391929-24.49007502 29.69800249-18.31512747 58.07945955 1.45635555 87.42793671 14.95968427 22.20650951 30.44365653 44.43632071 35.73313991 71.76920177 6.75748978 34.89427911-1.28159289 65.89717618-25.57360356 91.37757298-6.94390329 7.28177778-18.89766969 12.43145102-28.97565013 13.24701014-8.06238435 0.65244729-17.5112192-5.69726293-25.00271217-10.88188872-8.67987911-6.01183573-12.71107129-27.23967431-9.63524836-37.46911573 3.96128711-13.14215253 7.5497472-26.4241152 10.54401422-39.81093547 0.81555911-3.64671431-0.13981013-8.42356053-1.92238933-11.8256071-13.65478969-26.06293902-27.93872498-51.81130525-41.60516551-77.87424427-20.93656747-39.93909475-17.38305991-83.7812224 16.38108728-117.92984747 12.75767467-12.8974848 27.8921216-16.52089742 43.36444303-21.57736391C343.78510791 36.23776711 344.42590435 36.23776711 345.05504995 36.23776711zM718.59277369 36.23776711c1.75927751 1.79423005 3.22728391 4.14770062 5.3477376 5.27783254 15.0994944 8.01578098 19.01417813 22.25311289 20.94821831 37.48076657 0.36117618 2.92436195-0.76895573 6.11669333-1.572864 9.09930951-0.38447787 1.49130809-1.39810133 2.91271111-2.4117248 4.12439894-23.13857707 27.76396231-17.01023289 54.60750791 1.07187769 82.27826346 15.16939947 23.22013298 31.6669952 45.95093049 37.23609884 74.25083165 6.86234738 34.89427911-1.13013191 65.89717618-25.29398328 91.48243057-6.9206016 7.32838115-18.81611378 12.59456285-28.89409423 13.45672534-8.05073351 0.69905067-17.47626667-5.72056462-25.07261724-10.78868196-8.48181475-5.6623104-13.13050169-27.5775488-9.74010596-37.45746488 2.59813831-7.57304889 4.67198862-15.33251129 7.49149298-22.82400427 8.4934656-22.56768569-3.06417209-41.01097245-12.39649849-59.71057778-4.69529031-9.42553315-10.87023787-18.1403648-16.57915164-27.0532608-11.30131911-17.62772765-22.07835022-35.80304498-23.33664142-57.10078862-0.8388608-14.09752178-0.74565405-29.1504128 3.29718897-42.45567716 6.47786951-21.26279111 21.9152384-37.37590898 39.26334578-50.97244444 3.9845888-3.12242631 10.10128213-3.51855502 15.26260622-5.10306987 4.48557511-1.37479965 8.98280107-2.66804338 13.46837618-3.99623964C717.3111808 36.23776711 717.96362809 36.23776711 718.59277369 36.23776711zM281.9424256 801.32542009c-23.11527538 8.71483165-46.23055075 17.44131413-69.35747698 26.16779662 0.09320675 1.38645049 0.19806435 2.77290098 0.27962027 4.14770062 13.81790151 5.59240533 27.37948445 11.90716302 41.46535538 16.64905672 46.67328285 15.67038578 94.90777885 23.88423111 143.68986453 29.79120924 57.147392 6.93225245 114.49284835 8.71483165 171.89655893 7.08371342 80.9500672-2.29521635 161.1661312-10.71877689 238.85396196-35.22050276 15.79854507-4.98656142 30.97959538-11.90716302 49.03840426-18.9559239-24.03569209-14.62180978-48.03643165-21.11133013-72.54980835-28.71933156 1.73597582-1.8874368 2.77290098-3.36709405 4.12439893-4.42732089 16.17137209-12.61786453 32.54080853-24.99106133 48.51411627-37.84194275 4.47392427-3.61176178 7.88762169-5.17297493 13.45672533-2.05054863 17.26655147 9.70515342 35.50012302 17.84909369 52.09092552 28.55621973 11.96541725 7.72450987 21.2860928 18.50154098 25.88817635 33.33306596 4.33411413 14.00431502 0.69905067 25.15417315-7.20022187 35.87295004-12.36154595 16.777216-29.86111431 26.9484032-48.07138418 35.94285512-42.6770432 21.08802845-88.48816355 32.03982222-134.96338204 40.2653184-88.46486187 15.64708409-177.60547271 19.98119822-267.29367324 15.50727395-78.68980338-3.91468373-156.64560355-12.74602382-231.735296-37.66718009-24.09394631-8.01578098-46.92960142-20.22586595-69.5205888-32.0864256-9.05270613-4.74189369-16.42769067-13.20040675-23.62791254-20.84336071-14.37714205-15.27425707-12.30329173-38.57594595 1.49130809-54.99198577 19.37535431-23.05702115 45.98588302-34.05541831 72.49155413-45.41499165 1.60781653-0.68739982 4.55548018-0.17476267 5.9768832 0.93206755 18.26852409 14.08587093 36.37393635 28.38145707 54.49099947 42.66539236C281.81426631 800.3584 281.87252053 801.15065742 281.9424256 801.32542009z" /></svg>