<?xml version="1.0" standalone="no"?><!DOCTYPE svg PUBLIC "-//W3C//DTD SVG 1.1//EN" "http://www.w3.org/Graphics/SVG/1.1/DTD/svg11.dtd"><svg t="1543049493923" class="icon" style="" viewBox="0 0 1024 1024" version="1.1" xmlns="http://www.w3.org/2000/svg" p-id="930" xmlns:xlink="http://www.w3.org/1999/xlink" width="200" height="200"><defs><style type="text/css"></style></defs><path d="M930.6 0 477.4 0C425.8 0 384 41.8 384 93.4L384 384 93.4 384C41.8 384 0 425.8 0 477.4l0 453.1c0 51.6 41.8 93.4 93.4 93.4l707.1 0c51.6 0 93.4-41.8 93.4-93.4L893.9 894l36.6 0c51.6 0 93.4-41.8 93.4-93.4L1023.9 93.4C1024 41.8 982.2 0 930.6 0zM830 930.6c0 16.2-13.2 29.4-29.4 29.4L93.4 960C77.2 960 64 946.8 64 930.6L64 477.4c0-16.2 13.2-29.4 29.4-29.4L384 448l416.6 0c16.2 0 29.4 13.2 29.4 29.4L830 894 830 930.6zM960 800.6c0 16.2-13.2 29.4-29.4 29.4L894 830 894 477.4c0-51.6-41.8-93.4-93.4-93.4L448 384 448 93.4c0-16.2 13.2-29.4 29.4-29.4l453.1 0c16.2 0 29.4 13.2 29.4 29.4L959.9 800.6z" p-id="931"></path><path d="M128 576l640 0 0 64-640 0 0-64Z" p-id="932"></path><path d="M512 196l384 0 0 64-384 0 0-64Z" p-id="933"></path></svg>