<?xml version="1.0" standalone="no"?><!DOCTYPE svg PUBLIC "-//W3C//DTD SVG 1.1//EN" "http://www.w3.org/Graphics/SVG/1.1/DTD/svg11.dtd"><svg t="1541837863702" class="icon" style="" viewBox="0 0 1024 1024" version="1.1" xmlns="http://www.w3.org/2000/svg" p-id="1826" xmlns:xlink="http://www.w3.org/1999/xlink" width="200" height="200"><defs><style type="text/css"></style></defs><path d="M755.40576 246.4s-204.8 9.6-278.4 12.8c-44.8 0-70.4-35.2-28.8-76.8 32-28.8 41.6-38.4 35.2-96-6.4-64-70.4-86.4-124.8-86.4C304.20576 3.2 240.20576 32 224.20576 86.4c-12.8 35.2-12.8 70.4 19.2 92.8 16 12.8 54.4 28.8 12.8 64-22.4 16-249.6-3.2-249.6-3.2s-9.6 192-3.2 246.4c3.2 32 44.8 44.8 70.4 12.8C112.20576 448 224.20576 480 227.40576 585.6c6.4 108.8-112 124.8-134.4 83.2-22.4-38.4-89.6-48-92.8 0-3.2 76.8 32 326.4 32 326.4s147.2 35.2 214.4 25.6c32-6.4 44.8-57.6 16-83.2-25.6-22.4-32-147.2 105.6-131.2 108.8 9.6 89.6 105.6 64 121.6-25.6 16-25.6 67.2 28.8 83.2 76.8 19.2 304-28.8 304-28.8s-28.8-188.8-19.2-246.4c9.6-64 83.2-25.6 92.8-12.8 60.8 80 182.4 35.2 182.4-96 0-192-176-160-192-115.2-19.2 51.2-80 38.4-86.4 6.4-12.8-73.6 12.8-272 12.8-272z" p-id="1827"></path></svg>