<?xml version="1.0" standalone="no"?><!DOCTYPE svg PUBLIC "-//W3C//DTD SVG 1.1//EN" "http://www.w3.org/Graphics/SVG/1.1/DTD/svg11.dtd"><svg t="1543224170072" class="icon" style="" viewBox="0 0 1024 1024" version="1.1" xmlns="http://www.w3.org/2000/svg" p-id="2455" xmlns:xlink="http://www.w3.org/1999/xlink" width="200" height="200"><defs><style type="text/css"></style></defs><path d="M454.451306 567.403844c0-153.416112 118.30136-279.116999 268.644483-291.072285L480.050334 80.576153c-27.01733-21.760606-71.227228-21.760606-98.244558 0L221.660402 209.56083l0-66.572208c0-16.981766-13.893428-30.875195-30.875195-30.875195L161.379481 112.113427c-16.981766 0-30.875195 13.893428-30.875195 30.875195l0 139.991358-76.18003 61.35744c-27.01733 21.760606-27.01733 57.368592 0 79.129198l21.539572 17.34811 0 362.730325c0 30.773887 31.259958 55.952336 69.469188 55.952336l571.192124 0c3.589758 0 7.089465-0.290619 10.535961-0.718361C574.83714 848.742441 454.451306 722.16765 454.451306 567.403844zM268.217764 555.641963c0 12.938684-10.586103 23.524786-23.523763 23.524786l-45.087894 0c-12.938684 0-23.523763-10.585079-23.523763-23.524786l0-45.087894c0-12.93766 10.585079-23.523763 23.523763-23.523763l45.087894 0c12.93766 0 23.523763 10.586103 23.523763 23.523763L268.217764 555.641963z" p-id="2456"></path><path d="M748.504482 292.954145c-151.574161 0-274.449699 122.875538-274.449699 274.449699s122.875538 274.449699 274.449699 274.449699c151.574161 0 274.449699-122.874515 274.449699-274.449699S900.079666 292.954145 748.504482 292.954145zM747.525178 791.865036c-123.966383 0-224.460168-100.493785-224.460168-224.460168s100.493785-224.461191 224.460168-224.461191 224.460168 100.494809 224.460168 224.461191S871.491561 791.865036 747.525178 791.865036z" p-id="2457"></path><path d="M851.807243 509.813195 726.351949 509.813195l0 35.286668 125.455293 0c18.378579 0 33.334199 14.95562 33.334199 33.334199l0 15.931854c0 18.383696-14.95562 33.339316-33.334199 33.339316l-26.292829 0 0 35.286668 26.292829 0c37.836747 0 68.619844-30.78412 68.619844-68.625984l0-15.931854C920.427086 540.597315 889.642966 509.813195 851.807243 509.813195z" p-id="2458"></path><path d="M632.070656 546.570353 632.070656 530.638499c0-18.378579 14.95562-33.333176 33.345456-33.333176l32.253588 0 0-35.286668-32.253588 0c-37.848003 0-68.6311 30.78412-68.6311 68.619844l0 15.931854c0 37.841863 30.78412 68.625984 68.6311 68.625984l131.428332 0 0-35.286668L665.416112 579.909669C647.026276 579.909669 632.070656 564.954049 632.070656 546.570353z" p-id="2459"></path></svg>