<?xml version="1.0" standalone="no"?><!DOCTYPE svg PUBLIC "-//W3C//DTD SVG 1.1//EN" "http://www.w3.org/Graphics/SVG/1.1/DTD/svg11.dtd"><svg t="1545711474770" class="icon" style="" viewBox="0 0 1024 1024" version="1.1" xmlns="http://www.w3.org/2000/svg" p-id="2419" xmlns:xlink="http://www.w3.org/1999/xlink" width="200" height="200"><defs><style type="text/css"></style></defs><path d="M536.39863605 268.67717596a112.96568592 112.96568592 0 0 0 111.25778232-114.67359056 115.89352304 115.89352304 0 0 0-40.50173707-88.56704987 79.78354061 79.78354061 0 0 1 3.65979536 22.69073246 76.12374525 76.12374525 0 1 1-152.00350338 0 79.29556846 79.29556846 0 0 1 2.19587679-18.29897782 115.89352304 115.89352304 0 0 0-35.8659953 84.17529523 112.96568592 112.96568592 0 0 0 111.25778128 114.67359056z m-3.41580928-146.39181729a75.39178598 75.39178598 0 0 0 73.19590917-76.36773239 73.19590918 73.19590918 0 1 0-148.34370907 0 75.39178598 75.39178598 0 0 0 73.19590918 76.36773239zM9.14410536 807.64305304l179.08599046 71.48800455c-14.39519535-29.76633604-73.19590918-479.67719004-73.19590917-479.67719004zM737.44339968 1043.08989345l11.46735927-175.67018122-401.60155407 41.72166746z m121.99318126-968.13788937l-195.18909044 29.52234997a153.22343587 153.22343587 0 0 1 18.5429639 73.19590916 146.39181835 146.39181835 0 1 1-292.78363567 0 156.39525906 156.39525906 0 0 1 3.41580824-32.20619995L153.58403195 182.30600394c8.78350927 232.27501823 112.72169984 694.14120366 112.72169983 694.14120366l748.55016286-131.02067768c-51.96909529-53.67699992-156.15127298-670.23053976-156.15127192-670.23053975z m-563.85248528 365.97954484l318.4022042-47.0893685 9.51546854 35.37802316-318.89017738 48.06531387z m68.31618135 268.38499962l-11.46735822-40.50173602 391.35412624-56.11686384L755.98636358 652.71171254z m-24.39863604-116.38149519L324.13050027 555.11716733 829.18227275 485.58105351l15.37114071 40.01376386z m0 0" p-id="2420"></path></svg>