<?xml version="1.0" standalone="no"?><!DOCTYPE svg PUBLIC "-//W3C//DTD SVG 1.1//EN" "http://www.w3.org/Graphics/SVG/1.1/DTD/svg11.dtd"><svg t="1537346803970" class="icon" style="" viewBox="0 0 1024 1024" version="1.1" xmlns="http://www.w3.org/2000/svg" p-id="2953" xmlns:xlink="http://www.w3.org/1999/xlink" width="48" height="48"><defs><style type="text/css"></style></defs><path d="M512.682 60.502c-247.916 0-448.892 200.976-448.892 448.892s200.976 448.892 448.892 448.892S961.574 757.31 961.574 509.394 760.598 60.502 512.682 60.502zM670.02 546.477s-62.244 5.013-47.807-47.486c-2.062-15.441 75.836-51.249 65.524-100.661-16.497-58.675-112.394-75.805-137.238-2.059v233.301c0.993 32.765-63.877 140.293-198.182 94.966 0 0-89.658-38.242-84.694-134.551 3.972-43.687 45.279-97.167 91.644-114.733 51.557-14.41 70.494 36.706 47.81 59.353-16.498 8.234-118.079 50.623-47.81 118.709 38.152 38.088 102.069 14.016 117.497-22.713 2.062-25.735 2.023-212.712 2.023-238.448 0-25.734 76.538-163.263 216.168-85.153 0-0.001 157.109 91.624-24.935 239.475z" p-id="2954"></path></svg>