<?xml version="1.0" standalone="no"?><!DOCTYPE svg PUBLIC "-//W3C//DTD SVG 1.1//EN" "http://www.w3.org/Graphics/SVG/1.1/DTD/svg11.dtd"><svg class="icon" width="128px" height="128.00px" viewBox="0 0 1024 1024" version="1.1" xmlns="http://www.w3.org/2000/svg"><path fill="" d="M711.038458 390.341398c-171.982651 0-311.357687 139.412048-311.357687 311.357686s139.461398 311.357687 311.357687 311.357687 311.370024-139.412048 311.370024-311.357687-139.412048-311.357687-311.370024-311.357686zM384.999325 0C173.228723 0 1.591518 85.127711 1.591518 190.204916s171.637205 190.192578 383.407807 190.192578 383.34612-85.127711 383.346121-190.192578S596.708241 0 384.999325 0z m120.832 429.191711a744.336964 744.336964 0 0 1-120.832 9.795855c-182.481735 0-334.848-63.290602-373.599614-147.986506A100.907181 100.907181 0 0 0 1.591518 333.21947c0 105.027855 171.637205 190.204916 383.407807 190.204916 10.301687 0 20.368964-0.382458 30.460916-0.764916a332.688964 332.688964 0 0 1 90.371084-93.467759z m252.002699-52.396723c6.625157-13.990554 10.486747-28.523952 10.486747-43.550843 0-14.533398-3.577831-28.622651-9.795855-42.21841-13.780819 30.140145-42.16906 57.479711-80.957687 80.29147 5.465446-0.271422 10.807518-0.83894 16.309976-0.83894a330.887711 330.887711 0 0 1 63.956819 6.316723z m-372.834699 187.342651c-182.481735 0-334.848-63.290602-373.599614-147.986506A100.870169 100.870169 0 0 0 1.591518 458.369542c0 102.042217 162.149783 185.060241 365.555663 189.736097a328.852048 328.852048 0 0 1 25.661686-84.165398c-2.590843 0-5.194024 0.197398-7.809542 0.197398z m-21.787759 124.607228c-172.722892-4.823904-314.60241-66.226892-351.811855-147.517686-6.168675 13.571084-9.808193 27.709687-9.808193 42.218409 0 102.622072 163.988048 186.059566 369.034795 189.822458a331.270169 331.270169 0 0 1-7.994602-71.655325c0-4.318072 0.382458-8.56212 0.579855-12.867856zM11.399711 666.43894c-6.168675 13.571084-9.808193 27.697349-9.808193 42.218409 0 105.027855 171.637205 190.192578 383.407807 190.192579 14.249639 0 28.264867-0.444145 42.095036-1.233735a331.307181 331.307181 0 0 1-44.241734-83.289446C201.333205 813.820916 49.978602 750.752386 11.399711 666.38959z m449.079518 269.287325c-24.415614 2.46747-49.559133 3.836916-75.418217 3.836916-182.481735 0-334.848-63.278265-373.599614-147.974169a100.857831 100.857831 0 0 0-9.808193 42.206072C1.591518 938.872289 173.228723 1024 384.999325 1024c62.426988 0 121.189783-7.550458 173.265735-20.689735a330.073446 330.073446 0 0 1-97.847518-67.584z m383.518843-415.645301L735.639133 704.462651h85.386795v40.713253h-99.500723v56.122602h99.463711v41.219084h-99.451374v81.722603h-51.187662V842.51759h-103.127904v-41.231421h103.127904V745.175904h-103.127904v-40.713253h87.977638l-107.334939-184.332338h57.701783q75.233157 137.290024 91.493783 174.117012h1.048675q5.465446-15.137928 30.016771-61.082217l61.341301-113.084144zM537.908434 97.847518l-92.986603 88.101012h73.246844v19.468337h-85.349783v26.833735h85.349783v19.739759h-85.349783v39.047711h-43.920964v-39.084723h-88.520482v-19.739759h88.520482V205.416867h-88.520482v-19.468337h75.504578l-92.122988-88.101012h49.522121q64.536675 65.622361 78.440867 83.240096h0.900627q4.675855-7.229687 25.760385-29.190168l52.64347-54.049928z m0 0" /></svg>