<?xml version="1.0" standalone="no"?><!DOCTYPE svg PUBLIC "-//W3C//DTD SVG 1.1//EN" "http://www.w3.org/Graphics/SVG/1.1/DTD/svg11.dtd"><svg class="icon" p-id="9446" t="1503994730628" style="" width="128px" height="128.00px" viewBox="0 0 1024 1024" version="1.1" xmlns="http://www.w3.org/2000/svg"><defs><style type="text/css"></style></defs><path fill="" d="M258.920152 85.657795c11.680608 7.787072 19.467681 11.680608 27.254753 23.361216 11.680608 7.787072 15.574144 15.574144 23.361217 27.254753 3.893536 7.787072 11.680608 11.680608 15.574144 19.467681 7.787072 7.787072 11.680608 11.680608 11.680609 19.46768 3.893536 7.787072 11.680608 15.574144 11.680608 23.361217h225.825095c3.893536-7.787072 11.680608-11.680608 11.680608-23.361217l19.467681-19.46768 11.680608-11.680608c3.893536-11.680608 11.680608-23.361217 19.467681-27.254753 7.787072-11.680608 15.574144-15.574144 31.148289-27.254753 7.787072-3.893536 11.680608-7.787072 15.574144-11.680609 3.893536-7.787072 7.787072-11.680608 7.787073-15.574144 0-7.787072 0-11.680608-3.893537-15.574145-3.893536-7.787072-7.787072-11.680608-11.680608-11.680608-7.787072-3.893536-11.680608-3.893536-15.574144-3.893536-3.893536 0-11.680608 3.893536-11.680609 3.893536-3.893536 0-11.680608 3.893536-11.680608 7.787072-11.680608-3.893536-19.467681-3.893536-23.361217-3.893536-7.787072 0-11.680608 0-15.574144-3.893536-3.893536-3.893536-11.680608-7.787072-11.680609-11.680608l-11.680608-11.680609c-3.893536-3.893536-11.680608-7.787072-15.574145-11.680608-23.361217 0-35.041825 0-42.828897 3.893536-11.680608 3.893536-15.574144 11.680608-27.254753 15.574145-7.787072 7.787072-11.680608 11.680608-15.574144 11.680608-3.893536 0-3.893536 3.893536-7.787072 3.893536-3.893536-3.893536-7.787072-3.893536-11.680609-7.787072-3.893536 0-7.787072 0-11.680608-3.893536L430.235741 11.680608c0-3.893536-11.680608-7.787072-23.361216-7.787072-7.787072-3.893536-19.467681 0-27.254753 3.893536-15.574144 7.787072-23.361217 15.574144-27.254753 19.467681-7.787072 7.787072-15.574144 11.680608-23.361217 11.680608h-23.361216C301.749049 35.041825 297.855513 35.041825 290.068441 31.148289S278.387833 27.254753 270.60076 27.254753s-11.680608 0-15.574144 3.893536c-11.680608 7.787072-15.574144 19.467681-11.680608 31.148289 3.893536 11.680608 7.787072 15.574144 15.574144 23.361217zM562.61597 642.43346h-66.190114v-15.574144l62.296577-58.403042 19.467681-19.467681c15.574144-11.680608 19.467681-27.254753 11.680608-35.041825-7.787072-7.787072-11.680608-11.680608-19.46768-11.680608s-11.680608 3.893536-19.467681 11.680608c-3.893536 3.893536-7.787072 11.680608-15.574144 15.574145-11.680608 7.787072-15.574144 15.574144-27.254753 23.361216-11.680608 11.680608-19.467681 19.467681-35.041825 31.148289l-54.509506-54.509505c-7.787072-7.787072-11.680608-11.680608-11.680608-15.574145-7.787072-7.787072-11.680608-11.680608-23.361217-11.680608-11.680608-3.893536-15.574144 0-23.361217 7.787072-3.893536 7.787072-7.787072 15.574144-3.893536 23.361217 3.893536 7.787072 7.787072 11.680608 11.680608 15.574144l11.680609 15.574145c11.680608 7.787072 15.574144 15.574144 27.254753 27.254752l35.041825 31.148289v23.361217H367.939163c-7.787072 0-11.680608 3.893536-15.574144 7.787072-3.893536 7.787072-7.787072 11.680608-7.787072 15.574145 0 3.893536 3.893536 11.680608 7.787072 11.680608 3.893536 3.893536 11.680608 7.787072 15.574144 7.787073H441.91635v35.041825H367.939163c-7.787072 0-11.680608 3.893536-15.574144 7.787072-3.893536 7.787072-7.787072 11.680608-7.787072 15.574144 0 3.893536 3.893536 11.680608 7.787072 11.680609 3.893536 3.893536 11.680608 7.787072 15.574144 7.787072h77.870723v19.467681c0 11.680608 3.893536 15.574144 11.680608 19.46768 0 7.787072 7.787072 11.680608 19.467681 11.680609h3.893536v3.893536c0 54.509506 19.467681 105.125475 50.61597 147.954372-19.467681 0-38.935361 3.893536-58.403042 3.893536-58.403042 0-109.019011-7.787072-151.847909-23.361216-42.828897-15.574144-77.870722-35.041825-112.912547-62.296578-35.041825-27.254753-58.403042-58.403042-73.977187-85.657795-19.467681-31.148289-31.148289-62.296578-38.935361-93.444867-3.893536-35.041825-3.893536-70.08365 0-101.231939 3.893536-35.041825 11.680608-62.296578 23.361217-89.551331 11.680608-27.254753 27.254753-54.509506 46.722433-77.870722 19.467681-23.361217 38.935361-42.828897 62.296578-62.296578 15.574144-15.574144 38.935361-35.041825 50.61597-46.722434l38.935361-38.935361c11.680608-11.680608 23.361217-27.254753 31.148289-38.935361h245.292776c3.893536 7.787072 15.574144 19.467681 27.254752 31.148289 11.680608 11.680608 27.254753 23.361217 38.935362 38.935361 15.574144 19.467681 35.041825 35.041825 54.509505 54.509506 15.574144 15.574144 38.935361 35.041825 54.509506 54.509506 15.574144 19.467681 35.041825 42.828897 46.722433 70.08365 11.680608 27.254753 19.467681 58.403042 27.254753 93.444867 0 7.787072 3.893536 15.574144 3.893536 23.361216-35.041825-19.467681-77.870722-31.148289-124.593155-31.148289-58.403042-3.893536-116.806084 19.467681-159.634981 54.509506zM523.680608 689.155894c-7.787072 11.680608-15.574144 23.361217-19.46768 35.041825v-35.041825h19.46768zM726.144487 622.965779c-112.912548 0-206.357414 89.551331-206.357415 202.463879 0 109.019011 93.444867 198.570342 206.357415 198.570342s206.357414-89.551331 206.357414-198.570342c-3.893536-112.912548-93.444867-202.463878-206.357414-202.463879z m128.486692 167.422054l-124.593156 120.699619c-11.680608 11.680608-31.148289 11.680608-42.828898 0l-81.764258-81.764258c-11.680608-11.680608-11.680608-31.148289 0-38.935361 11.680608-11.680608 31.148289-11.680608 42.828897 0l62.296578 62.296578 105.125475-101.23194c11.680608-11.680608 31.148289-11.680608 42.828898 0 7.787072 7.787072 7.787072 27.254753-3.893536 38.935362z" /></svg> 