<?xml version="1.0" standalone="no"?><!DOCTYPE svg PUBLIC "-//W3C//DTD SVG 1.1//EN" "http://www.w3.org/Graphics/SVG/1.1/DTD/svg11.dtd"><svg t="1537347502009" class="icon" style="" viewBox="0 0 1062 1024" version="1.1" xmlns="http://www.w3.org/2000/svg" p-id="10486" xmlns:xlink="http://www.w3.org/1999/xlink" width="49.78125" height="48"><defs><style type="text/css"></style></defs><path d="M743.404001 511.688071c0-125.270623-99.692458-224.838309-224.838308-224.838309-125.270623 0-224.838309 99.692458-224.838309 224.838309 0 125.270623 99.692458 224.838309 224.838309 224.838309 125.145851 0 224.838309-99.567686 224.838308-224.838309z m-316.046302 78.106982h-32.440599V438.571951H429.354044l21.08639 54.026075h-23.207506v97.197027z m61.138053 0h-32.440599l-21.08639-54.026075h21.08639v-97.197027h32.440599v151.223102z m63.758255 0h-32.440599V438.571951h32.440599v151.223102z m47.288413 0h-32.4406V438.571951h32.4406v151.223102z m47.413184 0h-32.4406V438.571951h32.4406v151.223102zM850.707523 665.03229c-99.692458 0-178.922383 79.229926-178.922384 178.922383s79.229926 178.922383 178.922384 178.922383 178.922383-79.229926 178.922383-178.922383S947.779778 665.03229 850.707523 665.03229z m79.60424 171.061776c-5.864262 9.73218-17.468015 17.468015-29.19654 21.335933h-5.864262c-5.864262 0-9.73218-1.996345-13.600097-5.864262-1.996345-3.867918-1.996345-7.735835-1.996345-11.603753 1.996345-5.864262 7.735835-11.603753 15.596442-13.600098 7.735835-1.996345 11.603753-7.735835 11.603753-15.596442 0-9.73218-9.73218-15.596442-21.335933-15.596442s-21.335933 7.735835-21.335932 15.596442v64.13257c0 15.596442-9.73218 31.068113-23.332278 40.800292-7.735835 3.867918-17.468015 7.735835-27.200195 7.735836-29.19654 0-50.532472-21.335933-50.532472-46.664555 0-7.735835 1.996345-15.596442 5.864262-23.332277 5.864262-9.73218 17.468015-17.468015 29.19654-21.335933 1.996345 0 5.864262-1.996345 7.735835-1.996345 5.864262 0 9.73218 1.996345 13.600098 5.864263 1.996345 3.867918 1.996345 7.735835 1.996344 11.603752-1.996345 5.864262-7.735835 9.73218-13.600097 13.600098H806.039313c-7.735835 1.996345-11.603753 7.735835-11.603753 15.596442 0 9.73218 9.73218 15.596442 21.335932 15.596442s21.335933-7.735835 21.335933-15.596442v-64.13257c0-15.596442 9.73218-31.068113 23.332277-40.800292 7.735835-3.867918 17.468015-7.735835 27.200195-7.735836 29.19654 0 50.532472 21.335933 50.532473 46.664555-0.124772 9.856951-1.996345 17.592787-7.860607 25.328622z" p-id="10487"></path><path d="M183.678889 665.03229c-99.692458 0-178.922383 79.229926-178.922384 178.922383s79.229926 178.922383 178.922384 178.922383 178.922383-79.229926 178.922383-178.922383S280.875915 665.03229 183.678889 665.03229z m0 316.919702c-76.609723 0-137.997319-61.387596-137.99732-137.997319 0-76.609723 61.387596-135.377117 137.99732-135.377117 76.609723 0 137.997319 61.387596 137.997319 137.997319-2.495431 73.989521-63.883027 135.377117-137.997319 135.377117z m0 0" p-id="10488"></path><path d="M137.762963 843.954673c0 25.578165 20.462532 46.040697 46.040697 46.040697s46.040697-20.462532 46.040697-46.040697-20.462532-46.040697-46.040697-46.040697-46.040697 20.462532-46.040697 46.040697z m45.915926-485.61082c99.692458 0 178.922383-79.229926 178.922383-178.922384S283.371346 0.499086 183.678889 0.499086s-178.922383 81.725356-178.922384 178.922383c0.124772 97.197027 79.354697 178.922383 178.922384 178.922384z m0-314.299501c76.609723 0 137.997319 61.387596 137.997319 137.99732 0 76.609723-63.883027 135.377117-137.997319 135.377117-74.114293 0-137.997319-61.387596-137.99732-137.99732 0-76.609723 61.387596-135.377117 137.99732-135.377117z m0 0" p-id="10489"></path><path d="M137.762963 179.546241c0 25.578165 20.462532 46.040697 46.040697 46.040697s46.040697-17.84233 46.040697-46.040697c0-28.073596-20.462532-46.040697-46.040697-46.040697S137.762963 153.968076 137.762963 179.546241z m712.94456 178.797612c99.692458 0 178.922383-79.229926 178.922383-178.922384S950.39998 0.499086 850.707523 0.499086 671.785139 79.729012 671.785139 179.421469c0 99.817229 79.229926 178.922383 178.922384 178.922384z m0-314.299501c76.609723 0 137.997319 61.387596 137.997319 137.99732 0 76.609723-61.387596 137.997319-137.997319 137.997319-76.609723 0-137.997319-63.883027-137.99732-140.49275 0-76.734495 61.262824-135.501889 137.99732-135.501889z m0 0" p-id="10490"></path><path d="M804.666826 179.546241c0 25.578165 20.462532 46.040697 46.040697 46.040697s46.040697-20.462532 46.040697-46.040697S876.285688 133.505544 850.707523 133.505544s-46.040697 20.462532-46.040697 46.040697z m-291.341538 20.462532c12.726697 0 20.462532-10.231266 20.462532-20.462532V21.08639c0-12.726697-10.231266-20.462532-20.462532-20.462532S492.862756 10.855124 492.862756 21.08639v158.459851c0 10.231266 10.231266 20.462532 20.462532 20.462532z m104.808091-68.99866h5.115633c10.231266 0 17.84233-5.115633 20.462532-15.346899l20.462532-76.609723c2.620202-10.231266-2.495431-22.957963-15.346899-25.578165-10.231266-2.495431-22.957963 2.620202-25.578165 15.346899l-20.462532 76.609723c-2.495431 12.726697 2.620202 22.957963 15.346899 25.578165zM454.557894 759.609114c-10.231266-2.620202-22.957963 2.495431-25.578165 15.346899l-20.462532 68.99866c-2.620202 10.231266 2.495431 22.957963 15.346899 25.578165h5.115633c10.231266 0 17.84233-5.115633 20.462532-15.346899l17.84233-68.99866c2.620202-10.231266-2.495431-23.082734-12.726697-25.578165z m-38.304861 132.881687c-10.231266-2.620202-22.957963 2.495431-25.578165 15.346899l-17.84233 68.998659c-2.495431 10.231266 2.620202 22.957963 15.346899 25.578165h5.115633c10.231266 0 17.84233-5.115633 20.462532-15.346899l17.84233-68.998659c2.495431-10.231266-2.620202-20.462532-15.346899-25.578165z m99.692457-130.386256c-12.726697 0-20.462532 10.231266-20.462532 20.462532v196.764713c0 12.726697 10.231266 20.462532 20.462532 20.462532 12.726697 0 20.462532-10.231266 20.462532-20.462532V782.567077c0-10.231266-7.735835-20.462532-20.462532-20.462532z m109.798952 68.99866c-2.495431-10.231266-15.346899-17.84233-25.578165-15.346899s-17.84233 15.346899-15.346899 25.578165L623.249012 981.951992c2.495431 10.231266 10.231266 15.346899 20.462532 15.346899h5.115633c10.231266-2.495431 17.84233-15.346899 15.346899-25.578165l-38.429634-140.617521zM495.482958 240.809065c0 7.611064 2.620202 12.726697 10.231266 17.84233 5.115633 2.495431 12.726697 2.495431 20.462532 0 5.115633-2.495431 10.231266-10.231266 10.231266-17.84233 0-7.611064-2.495431-12.726697-10.231266-17.842329-5.115633-2.495431-12.726697-2.495431-20.462532 0-7.735835 2.495431-10.231266 10.231266-10.231266 17.842329z m74.114293 541.758012c0 7.611064 5.115633 12.726697 12.726697 15.346899 7.611064 2.495431 12.726697 2.495431 20.462532-2.495431 7.611064-5.115633 7.611064-10.231266 7.611063-17.84233 0-7.611064-5.115633-12.726697-12.726696-15.346899-7.611064-2.495431-12.726697-2.495431-20.462532 2.495431-7.611064 5.115633-7.611064 10.231266-7.611064 17.84233z m-327.150969-319.415134h5.115633c10.231266 0 17.84233-5.115633 20.462532-15.346899 2.495431-10.231266-2.620202-22.957963-15.346899-25.578165l-68.998659-17.842329c-10.231266-2.620202-22.957963 2.495431-25.578165 15.346899-2.495431 10.231266 2.620202 22.957963 15.346899 25.578165l68.998659 17.842329z m-132.881686-35.809431h5.115633c10.231266 0 17.84233-5.115633 20.462532-15.346898 2.495431-10.231266-2.620202-22.957963-15.346899-25.578165l-68.99866-17.84233c-10.231266-2.495431-22.957963 2.620202-25.578165 15.346899-2.495431 12.726697 2.620202 22.957963 15.346899 25.578165l68.99866 17.842329z m155.96442 84.345559c0-12.726697-10.231266-20.462532-20.462531-20.462532H48.301771c-12.726697 0-20.462532 10.231266-20.462532 20.462532 0 12.726697 10.231266 20.462532 20.462532 20.462532H245.066485c10.231266 0 20.462532-7.611064 20.462531-20.462532z m-79.229925 68.99866l-140.49275 38.304862c-10.231266 2.495431-17.84233 15.346899-15.346899 25.578165s10.231266 15.346899 20.462532 15.346899h5.115633l140.49275-38.304862c10.231266-2.495431 17.84233-15.346899 15.346899-25.578165-2.620202-10.231266-15.346899-17.84233-25.578165-15.346899z m43.420495 5.115633c0 7.611064 2.620202 12.726697 10.231266 17.84233 5.115633 2.495431 12.726697 2.495431 20.462531 0 5.115633-2.495431 10.231266-10.231266 10.231266-17.84233 0-7.611064-2.495431-12.726697-10.231266-17.84233-5.115633-2.495431-12.726697-2.495431-20.462531 0-7.611064 2.495431-10.231266 10.231266-10.231266 17.84233zM400.906134 84.969416c-10.231266 2.495431-17.84233 15.346899-15.346899 25.578165l38.304861 140.49275c2.620202 10.231266 10.231266 15.346899 20.462532 15.346899h5.115633c10.231266-2.495431 17.84233-15.346899 15.346899-25.578165L426.484299 100.316315c-2.495431-12.726697-12.726697-17.84233-25.578165-15.346899zM383.063804 64.506884c7.611064 2.495431 12.726697 2.495431 20.462532-2.49543 5.115633-5.115633 7.611064-10.231266 7.611064-17.84233 0-7.611064-5.115633-12.726697-12.726697-15.346899-7.611064-2.495431-15.346899-2.495431-20.462532 2.495431-5.115633 5.115633-7.611064 10.231266-7.611064 17.842329-0.124772 7.735835 4.990861 12.851468 12.726697 15.346899z m173.681979 181.417814c0 7.611064 2.495431 12.726697 10.231266 17.84233 5.115633 2.495431 12.726697 2.495431 20.462532 0 5.115633-2.495431 10.231266-10.231266 10.231266-17.84233 0-7.611064-2.495431-12.726697-10.231266-17.842329-7.611064-5.115633-12.726697-2.495431-20.462532 0-5.115633 2.495431-10.231266 10.231266-10.231266 17.842329z m25.578165-68.998659c0 7.611064 5.115633 12.726697 12.726696 15.346899 7.611064 2.495431 12.726697 2.495431 20.462532-2.620203 5.115633-5.115633 7.611064-10.231266 7.611064-17.842329 0-7.611064-5.115633-12.726697-12.726697-15.346899-7.611064-2.620202-15.346899-2.620202-20.462532 2.49543-4.990861 5.240405-10.106494 10.356038-7.611063 17.967102z m447.181186 334.762032c0-12.726697-10.231266-20.462532-20.462532-20.462532H853.202953c-12.726697 0-20.462532 10.231266-20.462532 20.462532s10.231266 20.462532 20.462532 20.462532h155.839649c10.231266 2.620202 20.462532-7.611064 20.462532-20.462532z m-104.683319 89.461192c-10.231266-2.620202-22.957963 2.495431-25.578165 15.346899-2.495431 10.231266 2.495431 22.957963 15.346899 25.578165l76.609724 20.462532h5.115633c10.231266 0 17.84233-5.115633 20.462532-15.346899 2.495431-10.231266-2.495431-22.957963-15.346899-25.578165l-76.609724-20.462532z m-153.344218-89.461192c0 7.611064 2.620202 12.726697 10.231266 17.84233 5.115633 2.495431 12.726697 2.495431 20.462532 0 5.115633-2.495431 10.231266-10.231266 10.231266-17.84233 0-7.611064-2.495431-12.726697-10.231266-17.84233-5.115633-2.620202-12.726697-2.620202-20.462532 0-7.735835 5.115633-10.231266 12.726697-10.231266 17.84233zM945.159576 399.268917c-2.495431-10.231266-15.346899-17.84233-25.578165-15.346899l-140.49275 38.304861c-10.231266 2.495431-17.84233 15.346899-15.346899 25.578165s10.231266 15.346899 20.462532 15.346899h5.115633l140.49275-38.304861c12.851468-2.620202 20.462532-15.346899 15.346899-25.578165z m17.967101-10.231266c0 7.611064 2.495431 12.726697 10.231266 17.84233 7.611064 5.115633 12.726697 2.495431 20.462532 0 7.611064-2.495431 10.231266-10.231266 10.231266-17.84233 0-7.611064-2.620202-12.726697-10.231266-17.84233-7.611064-5.115633-12.726697-2.620202-20.462532 0-7.735835 2.495431-10.231266 10.231266-10.231266 17.84233zM766.361964 575.571098c0 7.611064 2.495431 12.726697 10.231266 17.84233 5.115633 2.495431 12.726697 2.495431 20.462532 0 5.115633-2.495431 10.231266-10.231266 10.231266-17.84233 0-7.611064-2.495431-12.726697-10.231266-17.84233-5.115633-2.620202-12.726697-2.620202-20.462532 0-7.735835 5.115633-10.231266 10.231266-10.231266 17.84233z m71.49409 23.082734c0 7.611064 2.495431 12.726697 10.231266 17.84233 5.115633 2.620202 12.726697 2.620202 20.462532 0 5.115633-2.495431 10.231266-10.231266 10.231266-17.84233 0-7.611064-2.495431-12.726697-10.231266-17.84233-5.115633-2.495431-12.726697-2.495431-20.462532 0-7.611064 4.990861-10.231266 12.726697-10.231266 17.84233z m0 0" p-id="10491"></path></svg>