<?xml version="1.0" standalone="no"?><!DOCTYPE svg PUBLIC "-//W3C//DTD SVG 1.1//EN" "http://www.w3.org/Graphics/SVG/1.1/DTD/svg11.dtd"><svg t="1541505809395" class="icon" style="" viewBox="0 0 1024 1024" version="1.1" xmlns="http://www.w3.org/2000/svg" p-id="2004" xmlns:xlink="http://www.w3.org/1999/xlink" width="200" height="200"><defs><style type="text/css"></style></defs><path d="M302.901115 166.667927c0-36.94033-24.372083-66.88227-54.436035-66.88227-30.063951 0.001023-54.437058 29.943986-54.436035 66.88227l0 75.134211c0 36.94033 24.372083 66.88227 54.436035 66.88227 30.063951-0.001023 54.437058-29.943986 54.436035-66.88227L302.901115 166.667927z" p-id="2005"></path><path d="M895.175692 586.898851l-0.351009-345.875448c0-65.544809-59.151628-61.312414-59.151628-61.312414l-30.098745 0c0 0 0.137129 61.312414 0 106.926288-0.144292 45.609781-44.596533 46.12041-44.596533 46.12041s-43.479035-0.13303-92.253903 0c-48.774867 0.132006-46.547036-45.561685-46.547036-45.561685L622.17684 179.710988 342.788195 179.710988l0 106.368586c0 47.65537-46.264592 46.63411-46.264592 46.63411s-46.264592 0.096191-91.508904 0c-45.244313-0.095167-45.983171-46.729278-45.983171-46.729278L159.031528 179.710988 128.55312 179.710988c-58.002406 0-61.500214 61.126172-61.500214 61.126172s0.095171 530.034748 0.095171 590.794577c0 60.752666 61.559568 61.311391 61.559568 61.311391l493.193913 0 0 0 40.913499 0-37.369641-41.055045c-56.777458-56.774051-64.941737-145.534608-8.165303-202.311729 56.206429-56.20407 148.59132-55.787584 205.494649-0.709151C825.013851 648.187729 895.175692 586.898851 895.175692 586.898851z" p-id="2006"></path><path d="M861.38675 721.225185l-42.687986 42.686195-40.12245-44.213991c-26.120987-26.119891-64.529327-30.060643-85.788383-8.803503-21.258032 21.259186-17.317114 59.664891 8.803873 85.782735l72.376369 72.373331c2.017021 2.016937 4.113864 3.883447 6.262897 5.635347 1.238252 1.639337 2.586003 3.213181 4.067813 4.694929 14.539745 14.539134 33.008127 17.283642 54.174057 9.213849 2.249321-0.792039 4.431102-1.740644 6.526921-2.860141 7.445888-3.693112 14.589889-8.754385 20.991961-15.157211l72.376369-72.373331c26.120987-26.119891 30.061905-64.526619 8.803873-85.784782C925.915054 691.164542 887.506714 695.105295 861.38675 721.225185z" p-id="2007"></path><path d="M768.460507 166.667927c0-36.94033-26.418782-66.88227-56.482733-66.88227-30.063951 0.001023-52.39036 29.943986-52.389336 66.88227l0 75.134211c0 36.94033 24.372083 66.88227 54.436035 66.88227 30.063951-0.001023 54.436035-29.943986 54.436035-66.88227L768.460507 166.667927z" p-id="2008"></path><path d="M297.328979 271.306102 297.328979 271.306102 297.328979 271.306102z" p-id="2009"></path></svg>