<?xml version="1.0" standalone="no"?><!DOCTYPE svg PUBLIC "-//W3C//DTD SVG 1.1//EN" "http://www.w3.org/Graphics/SVG/1.1/DTD/svg11.dtd"><svg class="icon" width="128px" height="128.00px" viewBox="0 0 1024 1024" version="1.1" xmlns="http://www.w3.org/2000/svg"><path fill="" d="M512 1024c-264.5 0-479.8-215.2-479.8-479.8 0-122.3 46.3-238.8 130.3-328 83.6-88.7 196.4-142 317.5-150.1l3.7-0.2V28.3C483.7 12.7 496.4 0 512 0c15.6 0 28.3 12.7 28.3 28.3v37.6l3.7 0.2c97.6 6.5 189.6 42 266.1 102.8l2.8 2.2 33.9-33.9c2.7-2.7 6.1-4.8 10.2-6.4l5.7-2.1-48.2-48.2c-5.3-5.3-8.3-12.5-8.3-20s2.9-14.7 8.3-20c5.3-5.3 12.5-8.3 20-8.3 7.6 0 14.7 2.9 20 8.3l129 129c11 11 11 29 0 40-5.3 5.3-12.5 8.3-20 8.3-7.6 0-14.7-2.9-20-8.3l-48.2-48.2-2.1 5.7c-1.5 4.1-3.6 7.5-6.4 10.2l-32 32 2.7 2.8c86.7 90 134.4 208 134.4 332.1C991.8 808.8 776.5 1024 512 1024z m0-902.9c-233.3 0-423.1 189.8-423.1 423.1S278.7 967.3 512 967.3s423.1-189.8 423.1-423.1S745.3 121.1 512 121.1z m0 515.9c-51.2 0-92.8-41.6-92.8-92.8 0-38.9 24.9-73.9 61.9-87.1l2.6-0.9V221.8c0-15.6 12.7-28.3 28.3-28.3 15.6 0 28.3 12.7 28.3 28.3v234.5l2.6 0.9c37 13.2 61.9 48.2 61.9 87.1 0 51.1-41.6 92.7-92.8 92.7z m-36.2-56.6h72.4V508h-72.4v72.4z" /></svg>