<?xml version="1.0" standalone="no"?><!DOCTYPE svg PUBLIC "-//W3C//DTD SVG 1.1//EN" "http://www.w3.org/Graphics/SVG/1.1/DTD/svg11.dtd"><svg t="1539054983559" class="icon" style="" viewBox="0 0 1024 1024" version="1.1" xmlns="http://www.w3.org/2000/svg" p-id="3980" xmlns:xlink="http://www.w3.org/1999/xlink" width="200" height="200"><defs><style type="text/css"></style></defs><path d="M960 159.857778c0 35.669333-28.956444 64.625778-64.625778 64.625778H128.568889A64.625778 64.625778 0 0 1 64 159.857778V128.568889c0-35.669333 28.956444-64.625778 64.625778-64.625778H895.431111a64.625778 64.625778 0 0 1 64.625778 64.625778v31.232zM532.081778 921.201778a38.798222 38.798222 0 0 1-38.798222 38.798222H102.798222a38.798222 38.798222 0 0 1-38.798222-38.798222V316.757333a38.798222 38.798222 0 0 1 38.798222-38.798222H493.226667a38.798222 38.798222 0 0 1 38.798222 38.798222v604.444445z m427.918222 0a38.798222 38.798222 0 0 1-38.798222 38.798222H637.724444a38.798222 38.798222 0 0 1-38.798222-38.798222V316.757333a38.798222 38.798222 0 0 1 38.798222-38.798222h283.477334a38.798222 38.798222 0 0 1 38.798222 38.798222v604.444445z" p-id="3981"></path></svg>