<?xml version="1.0" standalone="no"?><!DOCTYPE svg PUBLIC "-//W3C//DTD SVG 1.1//EN" "http://www.w3.org/Graphics/SVG/1.1/DTD/svg11.dtd"><svg t="1539054875427" class="icon" style="" viewBox="0 0 1024 1024" version="1.1" xmlns="http://www.w3.org/2000/svg" p-id="1871" xmlns:xlink="http://www.w3.org/1999/xlink" width="200" height="200"><defs><style type="text/css"></style></defs><path d="M915.664 683.376c-17.03 0-29.804 14.903-29.804 31.934v151.152c0 51.093-38.32 93.671-87.285 93.671H240.804c-48.965 0-87.285-42.578-87.285-93.671V715.31c0-17.031-12.774-31.934-29.805-31.934S93.91 698.28 93.91 715.31v151.152c0 87.284 65.996 157.538 144.765 157.538h559.9c80.898 0 144.765-70.254 144.765-157.538V715.31c2.129-19.16-10.644-31.934-27.676-31.934z m95.8-340.623L930.568 74.51C917.793 29.805 881.602 0 843.282 0H179.066c-38.32 0-74.512 29.805-87.285 74.511L10.883 342.753C-4.02 391.717-1.891 447.069 17.269 493.904c19.16 48.965 51.094 85.156 93.672 102.187 36.191 14.903 74.511 14.903 110.703 2.13 23.417-10.645 44.706-25.547 61.738-46.836 29.804 36.19 72.382 57.48 114.96 57.48 44.707 0 85.156-21.29 114.96-57.48 29.805 36.19 72.383 57.48 114.961 57.48 44.707 0 85.156-21.29 114.96-57.48 17.032 21.289 38.32 36.19 61.739 46.835 36.19 14.903 74.511 14.903 110.702-2.129 40.45-19.16 74.512-55.35 93.672-102.187 14.902-48.964 17.031-102.187 2.129-151.151z" p-id="1872"></path></svg>