<?xml version="1.0" standalone="no"?><!DOCTYPE svg PUBLIC "-//W3C//DTD SVG 1.1//EN" "http://www.w3.org/Graphics/SVG/1.1/DTD/svg11.dtd"><svg t="1537347388793" class="icon" style="" viewBox="0 0 1024 1024" version="1.1" xmlns="http://www.w3.org/2000/svg" p-id="9503" xmlns:xlink="http://www.w3.org/1999/xlink" width="48" height="48"><defs><style type="text/css"></style></defs><path d="M843.517 199.945H675.693v-55.94c0-30.882-25.061-55.942-55.94-55.942H395.986c-30.908 0-55.944 25.06-55.944 55.943v55.939H172.217c-61.788 0-111.884 50.097-111.884 111.887v139.61h895.066v-139.61c0.005-61.791-50.092-111.887-111.882-111.887z m-223.763 0H395.985v-27.97c0-15.434 12.511-27.97 27.968-27.97H591.78c15.448 0 27.974 12.536 27.974 27.97v27.97zM507.839 591.54c30.878 0 55.939-25.075 55.939-55.943 0-10.243-2.934-19.692-7.745-27.97h-96.351c-4.826 8.278-7.757 17.727-7.757 27.97 0 30.868 25.007 55.944 55.914 55.944z" p-id="9504"></path><path d="M615.746 507.627c2.348 8.97 4.005 18.23 4.005 27.97 0 61.786-50.096 111.883-111.887 111.883-61.787 0-111.882-50.097-111.882-111.883 0-9.74 1.626-19 3.944-27.97H60.333v307.675c0 61.79 50.096 111.89 111.884 111.89h671.3c61.791 0 111.882-50.102 111.882-111.89V507.627H615.746z" p-id="9505"></path></svg>