<?xml version="1.0" standalone="no"?><!DOCTYPE svg PUBLIC "-//W3C//DTD SVG 1.1//EN" "http://www.w3.org/Graphics/SVG/1.1/DTD/svg11.dtd"><svg t="1537347181714" class="icon" style="" viewBox="0 0 1024 1024" version="1.1" xmlns="http://www.w3.org/2000/svg" p-id="7887" xmlns:xlink="http://www.w3.org/1999/xlink" width="48" height="48"><defs><style type="text/css"></style></defs><path d="M195.04 327.79111111H877.86666668v-59.52c0-16.53333334-6.61333334-31.41333334-18.18666668-42.98666667-11.57333334-11.57333334-26.45333334-18.18666666-42.98666666-18.18666666h-363.73333334V152.53777778c0-33.06666666-26.45333334-61.17333334-61.17333332-61.17333334H89.22666668c-33.06666666 0-61.17333334 26.45333334-61.17333334 61.17333334v720.85333333L133.86666668 388.96444444c1.65333334-33.06666666 28.10666666-61.17333334 61.17333332-61.17333333z" p-id="7888"></path><path d="M939.04 374.08444444H241.33333334c-33.06666666 0-61.17333334 26.45333334-61.17333334 61.17333334L74.34666668 934.56444444h757.22666666c16.53333334 0 31.41333334-6.61333334 42.98666666-18.18666666 11.57333334-11.57333334 18.18666666-26.45333334 18.18666668-42.98666667l105.81333332-439.78666667c0-33.06666666-26.45333334-59.52-59.52-59.52zM567.04 822.13777778h-59.52V603.89777778H448l89.28-117.38666667 89.28 117.38666667h-59.52v218.24z" p-id="7889"></path></svg>