<?xml version="1.0" standalone="no"?><!DOCTYPE svg PUBLIC "-//W3C//DTD SVG 1.1//EN" "http://www.w3.org/Graphics/SVG/1.1/DTD/svg11.dtd"><svg t="1537347143119" class="icon" style="" viewBox="0 0 1024 1024" version="1.1" xmlns="http://www.w3.org/2000/svg" p-id="7207" xmlns:xlink="http://www.w3.org/1999/xlink" width="48" height="48"><defs><style type="text/css"></style></defs><path d="M811.06944 923.648h79.7184c39.31648 0 68.52608-32.22016 68.52608-71.66976v-14.67392h-148.21888l-0.0256 86.34368z" fill="" p-id="7208"></path><path d="M884.8384 95.40096H136.15104c-39.31136 0-71.46496 29.21984-71.46496 68.6592v687.91808c0 39.4496 32.15872 71.66976 71.46496 71.66976h526.4384l-0.1024-86.34368h-148.37248l11.17184-16.32256c-168.90368 0.04096-340.4032 0.10752-340.53632 0.10752a33.88416 33.88416 0 0 1-21.92896-8.01792 33.85344 33.85344 0 0 1-3.68128-47.6672l154.90048-233.51808a33.81248 33.81248 0 0 1 45.73184-5.15072l136.64256 101.55008L741.376 350.04416c11.62752-14.57664 73.06752-83.09248 109.1072-5.34528 0.07168-0.128 0.13824 102.81984 0.13824 207.90784 0 38.94272 0.01024 84.11136 0.02048 126.16704l108.68224 158.53056V164.06016c-0.01024-39.43936-35.16928-68.6592-74.48576-68.6592zM352.89088 416.36864c-60.49792 0-109.70112-49.00352-109.70112-109.51168 0-60.5696 49.2032-109.63968 109.70112-109.63968 60.5696 0 109.70624 49.07008 109.70624 109.63968 0 60.50816-49.13664 109.51168-109.70624 109.51168z" fill="" p-id="7209"></path><path d="M689.21344 804.93056h-94.96064l142.34624-207.97952 142.58176 207.97952h-94.85824l-0.0256 118.7584h-94.976l-0.10752-118.7584z" fill="" p-id="7210"></path></svg>