<?xml version="1.0" standalone="no"?><!DOCTYPE svg PUBLIC "-//W3C//DTD SVG 1.1//EN" "http://www.w3.org/Graphics/SVG/1.1/DTD/svg11.dtd"><svg t="1537347222428" class="icon" style="" viewBox="0 0 1024 1024" version="1.1" xmlns="http://www.w3.org/2000/svg" p-id="8576" xmlns:xlink="http://www.w3.org/1999/xlink" width="48" height="48"><defs><style type="text/css"></style></defs><path d="M770.048 520.192c-126.976 0-231.424 102.4-233.472 229.376-2.048 131.072 100.352 237.568 229.376 237.568C897.024 991.232 1003.52 886.784 1003.52 757.76 1003.52 626.688 901.12 522.24 770.048 520.192zM825.344 743.424l0 120.832-108.544 0 0-120.832-40.96 0 94.208-96.256 94.208 96.256L825.344 743.424z" p-id="8577"></path><path d="M753.664 34.816 112.64 34.816C61.44 34.816 20.48 75.776 20.48 126.976L20.48 675.84c0 51.2 40.96 92.16 92.16 92.16l382.976 0c-2.048-12.288-2.048-26.624-2.048-38.912 2.048-139.264 116.736-251.904 256-251.904 34.816 0 65.536 6.144 96.256 18.432l0-368.64C843.776 75.776 802.816 34.816 753.664 34.816zM294.912 630.784 294.912 172.032l366.592 229.376L294.912 630.784z" p-id="8578"></path><path d="M294.912 172.032" p-id="8579"></path></svg>