<?xml version="1.0" standalone="no"?><!DOCTYPE svg PUBLIC "-//W3C//DTD SVG 1.1//EN" "http://www.w3.org/Graphics/SVG/1.1/DTD/svg11.dtd"><svg class="icon" width="128px" height="128.00px" viewBox="0 0 1024 1024" version="1.1" xmlns="http://www.w3.org/2000/svg"><path fill="#8a8a8a" d="M987.58656 510.45888c-78.18752-97.8048-268.5696-260.30848-475.98592-260.30848-207.62368 0-398.21312 162.50624-476.40064 260.30848-17.64864 22.32064-27.3152 46.52032-27.94752 70.49984 0.63232 23.98464 10.29888 48.17152 27.94752 70.50496 78.19008 97.78944 268.57216 260.29568 476.19328 260.29568 207.62368 0 398.00576-162.50624 476.19584-260.29568 17.856-22.33344 27.51744-46.52032 28.15488-70.50496-0.63744-23.97952-10.304-48.1792-28.15744-70.49984zM511.39328 787.712c-115.98848 0-210.14272-92.63104-210.14272-206.75328 0-114.13248 94.15424-206.75584 210.14272-206.75584 115.99104 0 210.14528 92.62336 210.14528 206.75584 0 114.1248-94.15424 206.75328-210.14528 206.75328z"  /><path fill="#8a8a8a" d="M21.952 537.26976c-10.6496 16.97024-7.09888 39.60064 7.09888 52.80256 15.9744 13.20192 37.28128 9.42848 49.70496-7.54176 1.77408-1.88416 198.81472-248.92928 433.13152-248.92928 227.21792 0 433.12896 248.92928 434.91072 250.816 12.42624 15.08608 35.49952 16.97024 49.69984 3.77344 14.20288-13.20192 15.97952-37.71648 3.55328-52.80768-3.55328-5.65248-46.15424-56.57088-113.60768-113.14944l90.53184-99.94752c14.20288-15.08608 12.42624-39.6032-1.77408-52.80256-3.55072-7.54176-12.42624-11.3152-21.30176-11.3152s-17.75104 3.77344-24.85248 11.3152l-97.63328 107.49184c-46.14912-33.9456-101.17888-66.00448-161.536-88.63232l37.27872-133.89312c5.3248-20.74368-5.3248-41.48736-24.84992-47.14496h-10.65216c-15.9744 0-30.17728 11.3152-33.72544 28.288l-37.27872 133.89312c-28.40576-5.65504-58.58048-9.42848-88.75776-9.42848s-60.35456 3.77344-88.75776 9.42848l-37.28128-132.0064c-3.55072-16.9728-19.52512-28.28544-33.72544-28.28544-3.55328 0-7.10144 0-8.87808 1.88672-19.52768 5.66016-30.17728 26.40128-24.85248 47.14496l37.27872 132.00896c-60.35456 22.62784-115.38176 54.68672-161.536 88.63232L98.28864 273.2544c-7.09888-7.54432-15.9744-11.3152-24.85248-11.3152-8.87552 0-17.75104 3.77344-24.84992 11.3152-14.20544 15.08608-14.20544 37.71392-1.77408 52.8l90.53184 99.95008c-72.78592 56.57344-115.392 111.26528-115.392 111.26528z"  /><path fill="#8a8a8a" d="M511.49824 588.38272m-122.18624 0a122.18624 122.18624 0 1 0 244.37248 0 122.18624 122.18624 0 1 0-244.37248 0Z"  /></svg>