<?xml version="1.0" standalone="no"?><!DOCTYPE svg PUBLIC "-//W3C//DTD SVG 1.1//EN" "http://www.w3.org/Graphics/SVG/1.1/DTD/svg11.dtd"><svg class="icon" width="128px" height="128.00px" viewBox="0 0 1024 1024" version="1.1" xmlns="http://www.w3.org/2000/svg"><path fill="#bfbfbf" d="M780.064268 991.965399M573.10059 641.075751c-48.716538 0-97.433076-18.544355-134.525879-55.635111-10.078543-10.073426-10.078543-26.453489 0-36.522822 10.073426-10.078543 26.449395-10.078543 36.522822 0 54.0408 54.036707 141.918243 54.036707 195.954951 0L858.899778 361.066429c54.035684-54.036707 54.035684-141.915174 0-195.951881-54.0408-54.039777-141.919267-54.039777-195.955974 0L504.438791 323.611375c-10.073426 10.073426-26.449395 10.073426-36.522822 0-10.073426-10.073426-10.073426-26.448372 0-36.521798l158.496827-158.50092c74.191746-74.188676 194.873316-74.188676 269.00878 0 74.136487 74.187653 74.188676 194.869223 0 269.00878L707.58042 585.439616c-37.096896 37.09178-85.813434 55.635111-134.529973 55.635111L573.10059 641.074727 573.10059 641.075751 573.10059 641.075751zM263.128863 951.051571c-48.720631 0-97.439216-18.544355-134.529973-55.640228-74.187653-74.18356-74.187653-194.869223 0-269.004687l187.843202-187.843202c74.187653-74.191746 194.872293-74.191746 269.00878 0 10.073426 10.073426 10.073426 26.449395 0 36.522822-10.078543 10.073426-26.453489 10.073426-36.527938 0-54.035684-54.0408-141.918243-54.0408-195.959044 0L165.126828 662.933571c-54.0408 54.036707-54.0408 141.915174 0 195.954951 54.030567 54.036707 141.91415 54.036707 195.949834 0l158.50092-158.499897c10.072403-10.073426 26.452465-10.073426 36.521798 0 10.078543 10.069333 10.078543 26.448372 0 36.526915L397.603577 895.411343c-37.09178 37.095873-85.812411 55.640228-134.529973 55.640228L263.128863 951.051571 263.128863 951.051571 263.128863 951.051571zM263.128863 951.051571M263.128863 959.642227l-0.056282 0c-53.148477-0.013303-103.063307-20.668739-140.548036-58.156538-37.505195-37.501102-58.156538-87.433328-58.156538-140.595109 0-53.16178 20.656459-103.080703 58.161654-140.561339l187.839109-187.843202c37.501102-37.501102 87.433328-58.156538 140.599202-58.156538 53.16178 0 103.080703 20.656459 140.556223 58.161654 13.418614 13.418614 13.418614 35.251875 0 48.670489-6.495948 6.494924-15.138792 10.073426-24.337291 10.073426-9.202593 0-17.845437-3.578502-24.337291-10.073426-24.5133-24.514323-57.152674-38.014802-91.904153-38.014802s-67.38983 13.501502-91.904153 38.014802L171.199127 669.006893c-24.5133 24.509207-38.013779 57.148581-38.013779 91.899036 0 34.752502 13.501502 67.394946 38.013779 91.905176 24.509207 24.5133 57.149605 38.013779 91.90006 38.013779 34.751478 0 67.393923-13.501502 91.904153-38.013779l158.496827-158.496827c6.500041-6.495948 15.141862-10.073426 24.340361-10.073426s17.841344 3.577478 24.337291 10.073426c6.491855 6.491855 10.069333 15.134699 10.069333 24.333198 0 9.197476-3.577478 17.844413-10.073426 24.336268L403.676899 901.484665C366.193193 938.973488 316.273247 959.628924 263.128863 959.642227L263.128863 959.642227 263.128863 959.642227zM450.967972 391.511835c-48.575322 0-94.193289 18.866696-128.452557 53.121871L134.672212 632.481002c-34.260292 34.233686-53.122895 79.83835-53.122895 128.409578 0 48.574299 18.86772 94.192266 53.122895 128.447441 34.251082 34.251082 79.859839 53.118801 128.431068 53.126988 48.565089-0.00921 94.174869-18.875906 128.422881-53.126988l158.499897-158.50092c3.251044-3.25002 5.039783-7.577582 5.039783-12.1886 0-4.607948-1.788739-8.936533-5.039783-12.18553-3.25002-3.251044-7.577582-5.039783-12.18553-5.039783-4.611018 0-8.939603 1.788739-12.193717 5.039783l-158.496827 158.499897c-27.756157 27.756157-64.709791 43.040259-104.050798 43.040259-39.343053 0-76.295664-15.284101-104.050798-43.040259-27.756157-27.759227-43.044352-64.712861-43.044352-104.054891 0-39.341007 15.289218-76.290547 43.044352-104.046704l187.842179-187.846272c27.760251-27.759227 64.713884-43.044352 104.054891-43.044352 39.343053 0 76.29157 15.285125 104.050798 43.044352 3.25002 3.25002 7.577582 5.03876 12.190647 5.03876 4.607948 0 8.940626-1.788739 12.190647-5.03876 6.720052-6.720052 6.720052-17.656125 0-24.38027C545.138748 410.377508 499.537154 391.511835 450.967972 391.511835L450.967972 391.511835zM573.10059 649.666406l-0.051165 0c-53.149501-0.013303-103.06433-20.664645-140.553153-58.152445-6.490831-6.495948-10.069333-15.138792-10.069333-24.337291 0-9.202593 3.578502-17.845437 10.073426-24.337291 6.491855-6.491855 15.134699-10.069333 24.333198-10.069333l0 0c9.198499 0 17.841344 3.574409 24.337291 10.069333 24.514323 24.514323 57.152674 38.013779 91.904153 38.013779s67.38983-13.500479 91.899036-38.013779l187.847296-187.846272c50.678216-50.674123 50.678216-133.13009 0-183.804213-24.509207-24.512277-57.152674-38.013779-91.904153-38.013779-34.752502 0-67.390853 13.501502-91.90006 38.013779L510.513136 329.685721c-6.495948 6.495948-15.138792 10.073426-24.337291 10.073426s-17.841344-3.577478-24.333198-10.073426c-13.422707-13.418614-13.422707-35.250852 0-48.669466l158.496827-158.50092c37.505195-37.505195 87.438445-58.157561 140.599202-58.157561 53.16178 0 103.080703 20.656459 140.556223 58.161654 37.484729 37.505195 58.131979 87.433328 58.136072 140.591015 0.008186 53.169967-20.638039 103.089913-58.136072 140.560316L713.653743 591.513962C676.160827 629.001761 626.25316 649.653103 573.10059 649.666406L573.10059 649.666406 573.10059 649.666406zM456.833563 549.947264c-4.607948 0-8.936533 1.788739-12.18553 5.03876-3.25002 3.25002-5.042853 7.577582-5.042853 12.190647 0 4.607948 1.792832 8.939603 5.042853 12.190647 34.246989 34.246989 79.860862 53.113685 128.431068 53.121871 48.566112-0.008186 94.175893-18.874883 128.426975-53.121871l187.842179-187.843202c34.251082-34.228569 53.109592-79.834256 53.105498-128.413672-0.00921-48.567135-18.866696-94.184079-53.109592-128.448464-34.228569-34.255175-79.834256-53.122895-128.404462-53.122895-48.574299 0-94.192266 18.86772-128.452557 53.122895L473.989291 293.1629c-6.720052 6.719028-6.720052 17.656125 0 24.375154 3.25002 3.251044 7.577582 5.039783 12.18553 5.039783 4.613064 0 8.940626-1.788739 12.190647-5.039783l158.506037-158.499897c27.755134-27.756157 64.708767-43.044352 104.046704-43.044352 39.341007 0 76.29464 15.289218 104.053867 43.044352 57.373709 57.376779 57.373709 150.72891 0 208.105688L677.125805 554.990117c-27.759227 27.755134-64.709791 43.044352-104.050798 43.044352-39.336914 0-76.295664-15.290241-104.050798-43.044352C465.774189 551.736003 461.446627 549.947264 456.833563 549.947264L456.833563 549.947264zM456.833563 549.947264" /></svg>